<svg xmlns="http://www.w3.org/2000/svg" xmlns:xlink="http://www.w3.org/1999/xlink" width="341.689" height="320.636" viewBox="0 0 341.689 320.636">
  <defs>
    <clipPath id="clip-path">
      <rect id="Rectángulo_17575" data-name="Rectángulo 17575" width="319.143" height="320.636" transform="translate(-73.637 479.032)" fill="none"/>
    </clipPath>
  </defs>
  <g id="Grupo_11889" data-name="Grupo 11889" transform="translate(-1245.333 -30.251)">
    <g id="Grupo_10453" data-name="Grupo 10453" transform="translate(1330.355 -448.78)" opacity="0.3">
      <g id="Grupo_10452" data-name="Grupo 10452">
        <g id="Grupo_11854" data-name="Grupo 11854">
          <g id="Grupo_11853" data-name="Grupo 11853" clip-path="url(#clip-path)">
            <g id="Grupo_10451" data-name="Grupo 10451">
              <path id="Trazado_29599" data-name="Trazado 29599" d="M208.513,754.566a115.388,115.388,0,0,1-17.653,14.863C133.272,810.749,65.131,798.7,50.649,795.763c-21.385-4.343-62.723-12.739-92.609-47.885-45.215-53.172-38.174-136.943-3.1-192.242,6.415-10.115,40.3-66.256,109.178-75.259,41.683-5.448,90.271,5.54,125.458,35.02,73.86,61.88,68.6,186.888,18.94,239.17" fill="#fff"/>
            </g>
          </g>
        </g>
      </g>
    </g>
    <g id="Grupo_11954" data-name="Grupo 11954" transform="translate(872.229 -89.62)">
      <g id="Grupo_11953" data-name="Grupo 11953" transform="translate(373.104 119.871)">
        <g id="Grupo_11901" data-name="Grupo 11901" transform="translate(19.266 128.327)">
          <g id="Grupo_11892" data-name="Grupo 11892" transform="translate(89.71 3.342)">
            <g id="Grupo_11890" data-name="Grupo 11890">
              <path id="Trazado_36116" data-name="Trazado 36116" d="M481.485,291.222c-.334-1.792-6.407-1.124-8.439-1.028-1.078.051-4.053-.21-4.795-1.132-1.362-1.692-3.585,2.7-5.154,2.612,2.107.642,7.046.132,8.787.49a9.02,9.02,0,0,0,4.048.21Z" transform="translate(-444.304 -180.683)" fill="#1e1e1f" fill-rule="evenodd"/>
              <path id="Trazado_36117" data-name="Trazado 36117" d="M474.168,321.718c1.019,1.651,4.336.493,6.5,1.3,4.787,1.786-6.788,8.269-10.388,8.429-7.709.345-2.134-10.126-11.5-17.307-4.3-3.3-10.214-7.714-4.465-15.589,3.084-4.222,3.355-7.319,3.383-12.646.054-10.455-3.654-25.959-2.222-35.369.816-5.362,6.035-37.337,6.547-37.8,5.832-.612,10.137,1.129,13.334,4.381,4.553,4.63,4.5,12.308,4.34,20.871-.308,16.827-3.176,23.547-6.412,39C469.988,292.729,468.029,311.76,474.168,321.718Z" transform="translate(-448.992 -212.612)" fill="#f1b287" fill-rule="evenodd"/>
              <path id="Trazado_36118" data-name="Trazado 36118" d="M457.866,310.356c-4.153-3.224-8.9-7.556-3.552-14.885,3.084-4.222,3.355-7.319,3.383-12.646.054-10.455-3.654-25.959-2.222-35.369.518-3.4,2.81-17.526,4.545-27.509,6.214,5.149,12.282,10.21,16.432,13.353-8.141,9.4-11.727,14.409-13,28.266-1.18,12.869.835,21.613-2.475,31.793A62.729,62.729,0,0,0,457.866,310.356Z" transform="translate(-448.992 -209.532)" fill="#e8a476" fill-rule="evenodd"/>
              <path id="Trazado_36119" data-name="Trazado 36119" d="M455.388,272.723c-5.336,4.049-6.877,9.575-4.326,15.554,1.221,7.661,2.419,13.6,2.2,22.222l1.719.74,1.485-.718.8-16.99c2.994,3.971,2.309,8.969,4.16,10.972.816.88,7.35,4.962,7.854,4.935,1.241.051,4.607-1.085,6.248-1.864,2.95-1.4,12.863-7.508,11.364-9.9-.437-.7-1.333-.694-2.238-.794-2.194-.24-5.042.453-5.892.2a1.622,1.622,0,0,1,1.019.957c.618,1.4-5.94,3.707-6.74,2.963C465.369,293.754,466.008,272.895,455.388,272.723Z" transform="translate(-449.86 -187.379)" fill="#272a35" fill-rule="evenodd"/>
              <path id="Trazado_36120" data-name="Trazado 36120" d="M455.388,272.723c-5.336,4.049-6.877,9.575-4.326,15.554,1.221,7.661,2.419,13.6,2.2,22.222l1.719.74,1.485-.718.8-16.99a11.914,11.914,0,0,1,1.681,3.187,61.949,61.949,0,0,1,1.738-21.549A7.185,7.185,0,0,0,455.388,272.723Z" transform="translate(-449.86 -187.379)" fill="#333647" fill-rule="evenodd"/>
              <path id="Trazado_36121" data-name="Trazado 36121" d="M455.081,287.436c2.994,3.971,2.309,8.969,4.16,10.972.816.88,7.35,4.962,7.854,4.935C464.549,293.6,461.433,285.893,455.081,287.436Z" transform="translate(-447.669 -181.286)" fill="#111112" fill-rule="evenodd"/>
            </g>
            <g id="Grupo_11891" data-name="Grupo 11891" transform="translate(17.337 9.255)">
              <path id="Trazado_36122" data-name="Trazado 36122" d="M493.7,297.74c-.332-1.792-6.407-1.123-8.438-1.026-1.079.051-4.053-.212-4.795-1.132-1.362-1.694-3.585,2.7-5.155,2.612,2.108.64,7.046.132,8.787.488a9.044,9.044,0,0,0,4.048.212Z" transform="translate(-456.515 -187.202)" fill="#0e4170" fill-rule="evenodd"/>
              <path id="Trazado_36123" data-name="Trazado 36123" d="M486.38,328.236c1.019,1.651,4.335.493,6.5,1.3,4.787,1.787-6.789,8.269-10.388,8.431-7.709.345-2.134-10.126-11.5-17.308-4.3-3.3-10.215-7.714-4.465-15.588,3.082-4.222,3.355-7.319,3.382-12.647.055-10.455-3.654-25.957-2.222-35.368.818-5.364,6.035-37.337,6.548-37.8,5.831-.612,10.137,1.127,13.334,4.381,4.552,4.63,4.5,12.307,4.339,20.869-.308,16.828-3.176,23.547-6.412,39C482.2,299.248,480.24,318.279,486.38,328.236Z" transform="translate(-461.203 -219.131)" fill="#f1b287" fill-rule="evenodd"/>
              <path id="Trazado_36124" data-name="Trazado 36124" d="M470.077,316.874c-4.153-3.224-8.9-7.555-3.551-14.883,3.082-4.222,3.355-7.319,3.382-12.647.055-10.455-3.654-25.957-2.222-35.368.518-3.4,2.81-17.526,4.546-27.511,6.213,5.151,12.281,10.21,16.431,13.354-8.141,9.4-11.726,14.409-13,28.266-1.178,12.867.836,21.612-2.473,31.791A62.8,62.8,0,0,0,470.077,316.874Z" transform="translate(-461.203 -216.052)" fill="#e8a476" fill-rule="evenodd"/>
              <path id="Trazado_36125" data-name="Trazado 36125" d="M467.6,279.242c-5.336,4.049-6.877,9.575-4.325,15.552,1.221,7.661,2.419,13.6,2.2,22.222l1.719.74,1.485-.717.8-16.99c2.994,3.97,2.309,8.969,4.161,10.971.815.882,7.35,4.963,7.854,4.937,1.239.05,4.606-1.085,6.248-1.866,2.95-1.4,12.862-7.508,11.364-9.9-.437-.7-1.333-.7-2.237-.794-2.194-.24-5.043.453-5.893.2a1.623,1.623,0,0,1,1.021.958c.616,1.4-5.94,3.707-6.741,2.962C477.582,300.273,478.22,279.412,467.6,279.242Z" transform="translate(-462.072 -193.898)" fill="#333647" fill-rule="evenodd"/>
              <path id="Trazado_36126" data-name="Trazado 36126" d="M467.6,279.242c-5.336,4.049-6.877,9.575-4.325,15.552,1.221,7.662,2.419,13.6,2.2,22.222l1.719.74,1.485-.717.8-16.99a11.9,11.9,0,0,1,1.682,3.187,61.944,61.944,0,0,1,1.738-21.549A7.188,7.188,0,0,0,467.6,279.242Z" transform="translate(-462.072 -193.898)" fill="#333647" fill-rule="evenodd"/>
              <path id="Trazado_36127" data-name="Trazado 36127" d="M467.292,293.955c2.994,3.97,2.309,8.969,4.161,10.971.815.882,7.35,4.963,7.854,4.937C476.76,300.116,473.645,292.412,467.292,293.955Z" transform="translate(-459.88 -187.805)" fill="#111112" fill-rule="evenodd"/>
            </g>
          </g>
          <g id="Grupo_11898" data-name="Grupo 11898">
            <g id="Grupo_11895" data-name="Grupo 11895" transform="translate(5.93)">
              <g id="Grupo_11893" data-name="Grupo 11893" transform="translate(0 1.332)">
                <path id="Trazado_36128" data-name="Trazado 36128" d="M435.4,276.129l-2.783-1.614a14.923,14.923,0,0,1-1.2,5.523,17.188,17.188,0,0,1-6.687,8.135l2.784,1.618a14.58,14.58,0,0,0,4.275-3.8,19.91,19.91,0,0,0,2.6-4.484A13.535,13.535,0,0,0,435.4,276.129Z" transform="translate(-376.63 -184.616)" fill="#5e627d" fill-rule="evenodd"/>
                <path id="Trazado_36129" data-name="Trazado 36129" d="M437.953,284.135l-44.727,25.9,2.731,1.579,44.78-25.855Z" transform="translate(-389.854 -180.578)" fill="#5e627d" fill-rule="evenodd"/>
                <path id="Trazado_36130" data-name="Trazado 36130" d="M432.566,234.775l-2.784-1.619.713,58.72,2.784,1.615Z" transform="translate(-374.509 -201.977)" fill="#5e627d" fill-rule="evenodd"/>
                <path id="Trazado_36131" data-name="Trazado 36131" d="M436.5,239.072a35.6,35.6,0,0,0-.47-4.051,28.751,28.751,0,0,0-5.832-13.492,20.669,20.669,0,0,0-5.929-5.182l-2.783-1.614c6.136,3.564,10,9.961,11.343,18.762a32.643,32.643,0,0,1,.424,3.958c.024.845.01,3.308.01,3.436l2.784,1.619A33.266,33.266,0,0,0,436.5,239.072Z" transform="translate(-377.991 -209.711)" fill="#918e8c" fill-rule="evenodd"/>
                <path id="Trazado_36132" data-name="Trazado 36132" d="M438.133,216.134v0c-6.718-3.909-10.814-5.4-18.826-4.819-8.587.618-17.236,4.1-24.311,8.2q-2.072,1.193-4.146,2.557l2.784,1.62q2.072-1.363,4.146-2.563a76.625,76.625,0,0,1,8.362-4.156,52.879,52.879,0,0,1,14.111-3.8,33.965,33.965,0,0,1,9.7.16,24.29,24.29,0,0,1,7.269,2.307C437.526,215.8,437.837,215.957,438.133,216.134Z" transform="translate(-390.851 -211.196)" fill="#a8a5a3" fill-rule="evenodd"/>
                <path id="Trazado_36133" data-name="Trazado 36133" d="M449.487,243.741c0-.2.054-3.944-.016-5.2-.064-1.154-.345-2.98-.592-4.393-1.708-9.774-6.525-16.566-14.107-19.765-9.911-4.185-23.8-1.826-37.815,6.264q-2.072,1.2-4.146,2.563l.1,1.545c1.347-.889,2.7-1.722,4.052-2.5,13.688-7.9,27.232-10.2,36.887-6.121,7.557,3.194,12.281,10.065,13.8,19.986a33.86,33.86,0,0,1,.424,3.958c.024.845.01,3.308.01,3.436l.713,58.716a14.537,14.537,0,0,1-1.16,5.441,17.167,17.167,0,0,1-6.727,8.222l-44.779,25.855,0,1.609L440.915,317.5c5.134-2.966,9.3-10.183,9.285-16.08Z" transform="translate(-390.028 -210.712)" fill="#1f202b" fill-rule="evenodd"/>
                <path id="Trazado_36134" data-name="Trazado 36134" d="M393.635,220.476l-2.784-1.62.1,1.551,2.784,1.614Z" transform="translate(-390.851 -207.98)" fill="#918e8c" fill-rule="evenodd"/>
              </g>
              <g id="Grupo_11894" data-name="Grupo 11894" transform="translate(15.739)">
                <path id="Trazado_36135" data-name="Trazado 36135" d="M425.707,217.342l-5.5-2.937a21.7,21.7,0,0,1,9.072,10.528l5.218,3.037C432.5,223.28,429.675,219.648,425.707,217.342Z" transform="translate(-394.266 -208.517)" fill="#d6d6e8" fill-rule="evenodd"/>
                <path id="Trazado_36136" data-name="Trazado 36136" d="M402.255,211.884l-.318,1.666,3.714,1.992-.238,1.3,1.61.694.662-2.662Z" transform="translate(-401.937 -209.575)" fill="#d6d6e8" fill-rule="evenodd"/>
                <path id="Trazado_36137" data-name="Trazado 36137" d="M425.312,214.032c3.173.423,6.4.948,9.184,2.587-.007-.006,0,0,0,0-3.334-1.939-6.527-4.072-10.242-5.185a28.474,28.474,0,0,0-8.46-1.173,42.611,42.611,0,0,0-11.822,1.768q-.894.251-1.81.538l5.222,3.035A45.306,45.306,0,0,1,425.312,214.032Z" transform="translate(-401.843 -210.258)" fill="#f9f9fe" fill-rule="evenodd"/>
                <path id="Trazado_36138" data-name="Trazado 36138" d="M405.973,214.707l-.454,2.615c16.669-5.316,29.809-1.019,35.149,11.493l1.949-2.01C437.025,213.695,423.324,209.169,405.973,214.707Z" transform="translate(-400.433 -209.363)" fill="#e8e8f7" fill-rule="evenodd"/>
              </g>
            </g>
            <g id="Grupo_11896" data-name="Grupo 11896" transform="translate(0.919 117.663)">
              <path id="Trazado_36139" data-name="Trazado 36139" d="M392.714,305.357c-1.738,1-2.6,2.32-2.6,3.637v1.61c0-1.319.863-2.636,2.6-3.637l.125-1Z" transform="translate(-386.147 -288.002)" fill="#333647" fill-rule="evenodd"/>
              <path id="Trazado_36140" data-name="Trazado 36140" d="M419.2,294.273,391.946,310.01l0,1.609,27.256-15.736Z" transform="translate(-385.38 -292.654)" fill="#1f202b" fill-rule="evenodd"/>
              <path id="Trazado_36141" data-name="Trazado 36141" d="M390.9,314.639a1.517,1.517,0,0,0,.153.1l-.006-1.61a8.934,8.934,0,0,1-2.221-1.837,4.641,4.641,0,0,1-1-1.352c-.026-.054-.051-.109-.075-.163a4.615,4.615,0,0,1-.41-1.846,15.367,15.367,0,0,0,.03,2.029,5.125,5.125,0,0,0,1.136,2.656A8.873,8.873,0,0,0,390.9,314.639Z" transform="translate(-387.321 -286.923)" fill="#333647" fill-rule="evenodd"/>
              <path id="Trazado_36142" data-name="Trazado 36142" d="M434.133,337.115l-44.186-25.528.005,1.609,44.185,25.527Z" transform="translate(-386.219 -285.387)" fill="#333647" fill-rule="evenodd"/>
              <path id="Trazado_36143" data-name="Trazado 36143" d="M461.051,318.488,433.8,334.223l.006,1.609L461.056,320.1Z" transform="translate(-367.811 -282.49)" fill="#333647" fill-rule="evenodd"/>
              <path id="Trazado_36144" data-name="Trazado 36144" d="M439.15,331.181l-.006-1.609a16.112,16.112,0,0,1-4.768,1.729,21.621,21.621,0,0,1-7.953.115,16.41,16.41,0,0,1-5.354-1.849l0,1.609a16.978,16.978,0,0,0,5.425,1.873,22.194,22.194,0,0,0,8.068-.17A16.059,16.059,0,0,0,439.15,331.181Z" transform="translate(-373.155 -277.839)" fill="#333647" fill-rule="evenodd"/>
              <path id="Trazado_36145" data-name="Trazado 36145" d="M477.773,327.515,450.52,343.246a13.774,13.774,0,0,1-12.492,0l-44.182-25.527c-3.436-1.995-3.416-5.237.036-7.227l27.255-15.737-2.783-1.619L391.1,308.868c-4.995,2.884-5.02,7.577-.055,10.465l44.187,25.529c4.969,2.886,13.079,2.886,18.075,0l27.251-15.735Z" transform="translate(-387.315 -293.133)" fill="#5e627d" fill-rule="evenodd"/>
            </g>
            <g id="Grupo_11897" data-name="Grupo 11897" transform="translate(0 12.784)">
              <path id="Trazado_36146" data-name="Trazado 36146" d="M513.655,255.72c-.9-1.477-3.677-3.206-4.468-3.784-9.856-7.208-29.014-17.94-40.591-24.254-4.433-2.327-8.7-4.746-13.282-6.809-.131-.06-.26-.118-.39-.175-3.292-1.479-3.8-2.019-6.9-.645-1.2.522-2.458,1.184-3.64,1.77-9.356,4.63-20.656,11.245-29.625,16.8L394.013,251.47h0l61.676,36.484.277.392c2.245-1.407,5.039-3.187,7.137-4.5,12.63-7.878,22.153-13.545,29.31-17.621.833-.464,1.674-.933,2.517-1.4,2.852-1.535,5.874-3.141,9.2-4.892q2.338-1.205,4.777-2.438c3.714-1.542,3.973.464,3.045,2.513a2.373,2.373,0,0,0,.672-.385,3.676,3.676,0,0,0,.958-1.171A2.837,2.837,0,0,0,513.655,255.72Z" transform="translate(-383.594 -219.262)" fill="#d6d6e8" fill-rule="evenodd"/>
              <path id="Trazado_36147" data-name="Trazado 36147" d="M397.877,241.54c-1.059.606-9.477,2.526-10.834,2.32,17.354,16.292,52.445,28.226,63.192,37.114.9.771,2.726-.657,3.931-.5,1.454.23,3.674-.9,4.733-1.509.013-.176-.514-.656-.625-.772C443.936,263.03,410.167,248.535,397.877,241.54Z" transform="translate(-386.519 -209.91)" fill="#b6b6d1" fill-rule="evenodd"/>
              <path id="Trazado_36148" data-name="Trazado 36148" d="M497.442,255.72c-.9-1.477-3.677-3.206-4.468-3.784-11.7-8.558-27.718-17.233-40.591-24.254-4.433-2.327-8.7-4.746-13.282-6.809-.131-.06-.26-.118-.39-.175-2.974-1.337-3.679-1.905-6.072-.99,13.347,7.576,53.413,28.794,64.842,38.5A2.733,2.733,0,0,0,497.442,255.72Z" transform="translate(-367.38 -219.261)" fill="#e8e8f7" fill-rule="evenodd"/>
              <path id="Trazado_36149" data-name="Trazado 36149" d="M457.726,283.324a12.991,12.991,0,0,1-3.809,1.259l-.1.014a4.668,4.668,0,0,1-2.384-.266c-1.9-.95-2.174-3.579-1.858-5.713l-12.082-6.975q-25.315-14.614-50.639-29.213a6.1,6.1,0,0,0,.527,4.465c1.3,2.069,4.9,4.356,6.4,5.4,13.3,9.206,37.524,23.389,52.08,30.255a23.182,23.182,0,0,0,5.851,2.09,8.943,8.943,0,0,0,3.5-.277,13.186,13.186,0,0,0,2.566-1.005Z" transform="translate(-386.674 -209.536)" fill="#d6d6e8" fill-rule="evenodd"/>
              <path id="Trazado_36150" data-name="Trazado 36150" d="M496.8,245.077c-9.26,4.586-17.178,8.811-24.9,13.268-9.666,5.578-19.1,11.511-30.722,18.808-.182.118-.371.236-.628.395-3.622,2.108-5.445,1.7-5.987.8-.5-1.031.016-2.783.855-4.442l-2.984-.938c-1.911,3.859-2.076,7.039-1.029,8.94,1.264,2.32,4.556,2.3,9.176-.345.253-.163.508-.322.761-.48,11.555-7.265,20.927-13.144,30.549-18.7,7.67-4.427,15.444-8.652,24.793-13.214a3.885,3.885,0,0,0,1.738-2.872C498.487,245.151,497.762,244.6,496.8,245.077Z" transform="translate(-368.168 -208.496)" fill="#e8e8f7" fill-rule="evenodd"/>
            </g>
          </g>
          <g id="Grupo_11900" data-name="Grupo 11900" transform="translate(18.298 1.889)">
            <path id="Trazado_36151" data-name="Trazado 36151" d="M495.916,237.243c6.747-3.8,6.7-13.681,1.239-20.225-3.193-3.829-9.4-5.617-17.364-4.227-12.617,2.2-43.442,15.241-55.352,23.754l-14.932-19c-4.266,9.9-10.435,24.8-8.962,36.8.595,4.844,2.245,9.214,7.421,12.255,4.21,2.475,9.443,4.753,12.338,5.324a24.633,24.633,0,0,0,15.653-2.037C450.76,262.789,487.208,242.152,495.916,237.243Z" transform="translate(-399.243 -211.279)" fill="#e8a476" fill-rule="evenodd"/>
            <path id="Trazado_36152" data-name="Trazado 36152" d="M508.87,244.572c6.748-3.8,6.7-13.681,1.24-20.225-2.638-3.163-7.332-5.088-13.378-4.823a32.337,32.337,0,0,0-3.984.6c-12.619,2.2-42.949,15.241-54.86,23.754l-24.927-25.421c-2.361,10.777-2.994,30.029-.656,42.08,1.434,7.394,2.722,9.639,9.111,13.393,4.21,2.475,9.444,4.753,12.338,5.324a24.638,24.638,0,0,0,15.654-2.037C464.208,270.118,500.163,249.481,508.87,244.572Z" transform="translate(-394.829 -208.706)" fill="#f1b287" fill-rule="evenodd"/>
            <g id="Grupo_11899" data-name="Grupo 11899" transform="translate(0.907 1.224)">
              <path id="Trazado_36153" data-name="Trazado 36153" d="M495.967,237.189c5.06-2.854,6.3-9.121,4.3-14.837-5.415-3.91-12.67-8.274-18.407-9.9q-.986.111-2.015.288c-12.617,2.2-43.442,15.241-55.352,23.754l-14.932-16.783c-1.958,8.94-10.668,23.185-9.19,34.688.6,4.643,2.348,9.033,7.65,12.147,4.21,2.475,9.443,4.753,12.338,5.324a24.632,24.632,0,0,0,15.653-2.037C450.811,262.735,487.26,242.1,495.967,237.189Z" transform="translate(-400.201 -212.45)" fill="#f6f5f5" fill-rule="evenodd"/>
              <path id="Trazado_36154" data-name="Trazado 36154" d="M508.87,244.572l.045-.027c1.031-8.96-1.832-15.421-8.378-21.021-1.309-1.119-2.976-2.424-4.86-3.779-.947.077-1.925.2-2.93.376-12.619,2.2-42.949,15.241-54.86,23.754l-24.927-25.421c-2.361,10.777-2.994,30.029-.656,42.08,1.434,7.394,2.722,9.639,9.111,13.393,4.21,2.475,9.444,4.753,12.338,5.324a24.638,24.638,0,0,0,15.654-2.037C464.208,270.118,500.163,249.481,508.87,244.572Z" transform="translate(-395.736 -209.93)" fill="#f6f5f5" fill-rule="evenodd"/>
            </g>
            <path id="Trazado_36155" data-name="Trazado 36155" d="M411.312,211.588c-.122,2.345-1.188,4.576-2.1,6.873-5.078,8.073-9.132,17.669-9.595,27.9-.636,14.041,3.8,22.233,14.651,30.47,15.744,11.949,31.015,10.168,49.068-1.992-1-5.812.075-12.791-.251-18.528-.629-8-.061-13.966-2.852-21.722-2.3-6.386-5.479-10.42-7.52-17.027C440.577,230.567,427,220.312,411.312,211.588Z" transform="translate(-399.562 -211.588)" fill="#f6f5f5" fill-rule="evenodd"/>
          </g>
        </g>
        <g id="Grupo_11917" data-name="Grupo 11917">
          <g id="Grupo_11907" data-name="Grupo 11907">
            <g id="Grupo_11902" data-name="Grupo 11902" transform="translate(1.484 74.436)">
              <path id="Trazado_36156" data-name="Trazado 36156" d="M387.587,172.341l-13.438-.041c0,.284.028,115.827.085,116.084,1.073,4.9,11.971,4.958,13.234.17C387.546,288.259,387.587,172.673,387.587,172.341Z" transform="translate(-374.149 -172.3)" fill="#333647" fill-rule="evenodd"/>
              <path id="Trazado_36157" data-name="Trazado 36157" d="M379.947,172.317l-5.8-.017c0,.284.028,115.827.085,116.084.491,2.24,3.041,3.467,5.781,3.681C379.973,274.162,379.949,180.394,379.947,172.317Z" transform="translate(-374.149 -172.3)" fill="#1f202b" fill-rule="evenodd"/>
              <path id="Trazado_36158" data-name="Trazado 36158" d="M383.258,172.917l-2.821-.524c0,.087,0,118.726.013,118.8a5.15,5.15,0,0,0,3.033-1.8C383.505,289.309,383.258,173.019,383.258,172.917Z" transform="translate(-371.51 -172.261)" fill="#5e627d" fill-rule="evenodd"/>
              <path id="Trazado_36159" data-name="Trazado 36159" d="M375.2,172.357l1.841.369c0,11.825,0,117.5-.013,117.571a2.756,2.756,0,0,1-2.052-1.458Z" transform="translate(-373.803 -172.276)" fill="#333647" fill-rule="evenodd"/>
            </g>
            <g id="Grupo_11906" data-name="Grupo 11906">
              <g id="Grupo_11903" data-name="Grupo 11903" transform="translate(325.481 141.384)">
                <path id="Trazado_36160" data-name="Trazado 36160" d="M615.794,219.5l-13.44-.041c0,.285.03,115.828.085,116.085,1.075,4.9,11.973,4.956,13.235.17C615.751,335.415,615.794,219.829,615.794,219.5Z" transform="translate(-602.354 -219.454)" fill="#333647" fill-rule="evenodd"/>
                <path id="Trazado_36161" data-name="Trazado 36161" d="M608.154,219.472l-5.8-.017c0,.284.03,115.827.085,116.084.493,2.24,3.041,3.467,5.783,3.681C608.178,321.317,608.155,227.549,608.154,219.472Z" transform="translate(-602.354 -219.454)" fill="#1f202b" fill-rule="evenodd"/>
                <path id="Trazado_36162" data-name="Trazado 36162" d="M611.465,220.072l-2.822-.524c0,.087,0,118.726.014,118.8a5.154,5.154,0,0,0,3.033-1.8C611.71,336.464,611.465,220.174,611.465,220.072Z" transform="translate(-599.715 -219.415)" fill="#5e627d" fill-rule="evenodd"/>
                <path id="Trazado_36163" data-name="Trazado 36163" d="M603.4,219.512l1.841.369c0,11.825,0,117.5-.013,117.571a2.758,2.758,0,0,1-2.053-1.458Z" transform="translate(-602.008 -219.43)" fill="#333647" fill-rule="evenodd"/>
              </g>
              <g id="Grupo_11904" data-name="Grupo 11904" transform="translate(222.633 200.667)">
                <path id="Trazado_36164" data-name="Trazado 36164" d="M543.352,261.251l-13.438-.041c0,.284.028,115.827.085,116.084,1.073,4.9,11.973,4.958,13.234.17C543.311,377.169,543.352,261.583,543.352,261.251Z" transform="translate(-529.914 -261.21)" fill="#333647" fill-rule="evenodd"/>
                <path id="Trazado_36165" data-name="Trazado 36165" d="M535.714,261.228l-5.8-.018c0,.284.028,115.827.085,116.084.491,2.24,3.041,3.468,5.783,3.683C535.739,363.072,535.715,269.305,535.714,261.228Z" transform="translate(-529.914 -261.21)" fill="#1f202b" fill-rule="evenodd"/>
                <path id="Trazado_36166" data-name="Trazado 36166" d="M539.025,261.828,536.2,261.3c0,.087,0,118.725.014,118.8a5.155,5.155,0,0,0,3.031-1.8C539.27,378.219,539.025,261.929,539.025,261.828Z" transform="translate(-527.274 -261.171)" fill="#5e627d" fill-rule="evenodd"/>
                <path id="Trazado_36167" data-name="Trazado 36167" d="M530.962,261.267l1.841.371c0,11.824,0,117.5-.014,117.569a2.755,2.755,0,0,1-2.052-1.458Z" transform="translate(-529.568 -261.186)" fill="#333647" fill-rule="evenodd"/>
              </g>
              <g id="Grupo_11905" data-name="Grupo 11905">
                <path id="Trazado_36168" data-name="Trazado 36168" d="M487.755,120.125l-16.615,9.568c-44.8,26.009-32.592,18.1-77.39,44.115l-8.335,4.836a94.346,94.346,0,0,0-9.921,6.433c-1.748,1.485-2.362,4.087-2.362,6.291v2.167c-.016,3.524,1.628,6.558,3.963,7.914,56.045,32.325,166.993,96.571,223.085,128.937,55.873-32.446,54.767-30.924,110.6-63.429a5.853,5.853,0,0,0,.839-.575c.082-.072.165-.168.264-.24,1.658-1.566,1.9-2.531,2.614-4.6,0-.024.017-.034.017-.06a21.437,21.437,0,0,0,.263-4.593c-.237-3.863-1.809-6.67-5-8.516L694.4,239.5C645.235,211.1,541.85,149.77,492.676,121.374,491.1,120.469,488.821,119.365,487.755,120.125Z" transform="translate(-373.093 -119.871)" fill="#cacad9" fill-rule="evenodd"/>
                <path id="Trazado_36169" data-name="Trazado 36169" d="M646.3,212.781l-18.792,7.107-94.443,57.852v5.195c-.017.251-.017.514-.017.765l114.566-65.735A10.121,10.121,0,0,0,646.3,212.781Z" transform="translate(-305.966 -80.871)" fill="#e8e8f7" fill-rule="evenodd"/>
                <path id="Trazado_36170" data-name="Trazado 36170" d="M374.681,166.389a10.181,10.181,0,0,0-1.577,5.526l227.08,131.26c.017-.992.017-2.023.017-3.04v-3.389L382.641,169.27Z" transform="translate(-373.104 -100.345)" fill="#d8d8e6" fill-rule="evenodd"/>
                <path id="Trazado_36171" data-name="Trazado 36171" d="M599.734,295.894V291.5L404.453,175.7,379.428,164.17a6.019,6.019,0,0,0-5.213,3.15L599.734,297.678v-1.783Z" transform="translate(-372.638 -101.277)" fill="#e8e8f7" fill-rule="evenodd"/>
                <path id="Trazado_36172" data-name="Trazado 36172" d="M533.058,277.635v1.137l113.235-64.96a6.441,6.441,0,0,0-5.394-3.49h-.017l-18.818,7.892-89.006,53.913v5.507Z" transform="translate(-305.961 -81.903)" fill="#f2f2fc" fill-rule="evenodd"/>
                <path id="Trazado_36173" data-name="Trazado 36173" d="M487.078,120.244c-53.818,31.273-55.374,31.094-109.191,62.365,107.913,62.3,112.391,65.035,220.306,127.331,53.8-31.269,54.008-30.533,107.824-61.805C598.1,185.834,594.976,182.543,487.078,120.244Z" transform="translate(-371.096 -119.715)" fill="#f9f9fe" fill-rule="evenodd"/>
              </g>
            </g>
          </g>
          <g id="Grupo_11908" data-name="Grupo 11908" transform="translate(42.375 3.056)">
            <path id="Trazado_36174" data-name="Trazado 36174" d="M476.006,122.024l-73.056,42.455,52.072,30.064,73.055-42.455Z" transform="translate(-402.951 -122.024)" fill="#f2f2fc" fill-rule="evenodd"/>
            <path id="Trazado_36175" data-name="Trazado 36175" d="M482.053,130.169l-.646-1.313-.287.092.094.292.308-.152-.54.267.531,1.08.539-.267Zm-1.506-1.035-1.147.369.186.574,1.146-.371-.185-.572Zm-1.719.554c-.382.125-.765.246-1.147.371l.186.572c.381-.125.764-.246,1.146-.369l-.185-.574Zm-1.719.555-1.147.369.185.574,1.147-.371-.185-.572Zm-1.721.554-1.146.369.185.574,1.146-.369-.185-.574Zm-1.719.554c-.382.119-.767.244-1.146.369l.185.574c.381-.125.764-.25,1.146-.369l-.185-.574Zm-1.719.554c-.382.122-.765.244-1.146.369l.183.574,1.147-.369-.185-.574Zm-1.719.554-1.147.369.185.572,1.146-.368-.183-.574Zm-1.721.554-1.146.368.183.574,1.147-.369-.185-.572Zm-1.719.552-1.147.369.185.574,1.147-.369-.185-.574Zm-1.721.554c-.382.121-.764.246-1.146.369l.185.572c.382-.122.764-.247,1.146-.368l-.185-.574Zm-1.719.554c-.382.119-.765.244-1.146.368l.183.574c.382-.124.765-.25,1.147-.368l-.185-.574Zm-1.721.552-1.146.369.185.574,1.147-.369-.186-.574Zm-1.719.554-1.146.369.185.574,1.146-.369-.185-.574Zm-1.719.554-1.08.348-.116.067.3.521.06-.034,1.019-.328-.185-.574Zm-1.718.717-1.042.6.3.521,1.044-.6-.3-.521Zm-1.563.9-1.042.6.3.522,1.042-.6-.3-.521Zm-1.565.9c-.341.2-.71.395-1.042.6l.3.522c.349-.195.7-.4,1.044-.6l-.3-.521Zm-1.565.9-1.042.6.3.522,1.042-.6-.3-.521Zm-1.563.9-1.042.6.3.521,1.044-.6-.3-.521Zm-1.563.9-1.044.6.3.521,1.044-.6-.3-.521Zm-1.565.9-1.044.6.3.521,1.042-.6-.3-.521Zm-1.565.9-1.042.6.3.521,1.044-.6-.3-.521Zm-1.563.9-1.044.6.3.521,1.042-.6-.3-.521Zm-1.565.9-1.042.6.3.521,1.042-.6-.3-.521Zm-1.563.906-1.044.6.3.521,1.042-.6-.3-.521Zm-1.565.9-1.042.6.3.521,1.042-.6-.3-.521Zm-1.565.9-1.042.6.3.52,1.043-.6-.3-.521Zm-1.563.9-1.042.6.3.521,1.042-.6-.3-.521Zm-1.565.9-1.042.6.3.521,1.044-.6-.3-.521Zm-1.563.9-1.042.6.3.521,1.042-.6-.3-.521Zm-1.565.9q-.522.3-1.042.6l.3.521,1.044-.6-.3-.521Zm-1.563.9-1.044.6.3.521,1.042-.6-.3-.521Zm-1.565.9-1.042.6.3.521,1.042-.6-.3-.521Zm-1.563.9-1.044.6.3.521,1.042-.6-.3-.521Zm-1.565.9-1.042.6.3.521,1.042-.6-.3-.521Zm-1.565.9-1.042.6.3.521,1.042-.6-.3-.522Zm-1.563.9-1.042.6.3.521,1.042-.6-.3-.522Zm-1.565.9-1.042.6.3.521,1.044-.6-.3-.522Zm-1.565.9-1.042.6.3.521,1.042-.6-.3-.522Zm-1.563.9-1.042.6.3.521,1.044-.6-.3-.521Zm-1.565.9-1.042.6.3.521,1.043-.6-.3-.521Zm-1.563.9-1.042.6.3.521,1.042-.6-.3-.521Zm-1.565.906-.406.234.6.348.106-.062-.3-.52Zm18.677,11.2.794-.906-.451-.4-.8.906.453.4Zm1.191-1.359.8-.9-.453-.4q-.4.451-.8.906l.453.4Zm1.193-1.357.794-.906-.453-.4-.794.9.453.4Zm1.191-1.357c.266-.3.531-.6.8-.906l-.453-.4-.8.906.453.4Zm1.191-1.359.8-.9-.453-.4-.794.9.451.4Zm1.193-1.357c.26-.3.53-.6.8-.906l-.453-.4c-.264.3-.535.6-.8.9l.453.4Zm1.191-1.357.8-.906-.453-.4-.794.906.451.4Zm1.193-1.359.8-.9-.453-.4-.794.906.452.4Zm1.193-1.357.8-.9-.453-.4-.8.906.453.4Zm1.191-1.356c.263-.3.527-.618.8-.906l-.453-.4c-.268.288-.532.608-.8.9l.451.4ZM443.278,160l.292-.334.561-.158-.163-.581-.733.207-.41.467.453.4Zm1.434-.655c.386-.109.772-.217,1.158-.328l-.163-.579-1.159.327.163.581Zm1.738-.491,1.16-.327-.165-.581-1.159.328.163.579Zm1.739-.491,1.159-.327-.163-.581q-.579.166-1.159.328l.163.579Zm1.739-.49,1.159-.328-.163-.579-1.16.327.165.581Zm1.739-.491,1.159-.327-.163-.581c-.388.108-.774.219-1.16.328l.165.579Zm1.738-.49,1.159-.328-.163-.579-1.159.327.163.581Zm1.739-.491,1.159-.327-.163-.581-1.159.327.163.581Zm1.738-.491,1.16-.327-.163-.579-1.16.327.163.579Zm1.739-.49,1.159-.327-.162-.581-1.16.327.163.581Zm1.739-.491c.386-.106.772-.219,1.159-.327l-.163-.581c-.386.109-.772.221-1.16.328l.165.579Zm1.739-.49,1.159-.328-.163-.579-1.159.327.163.581Zm1.738-.491,1.16-.327-.165-.581-1.159.328.163.579Zm1.739-.491,1.159-.327-.163-.581-1.159.328.163.579Zm1.738-.49,1.16-.328-.163-.579-1.16.327.163.581Zm1.739-.491,1.16-.328-.163-.579-1.16.328.163.579Zm1.739-.491c.386-.109.774-.216,1.159-.327l-.163-.581c-.385.112-.774.219-1.159.328l.163.579Zm1.738-.491c.388-.106.774-.217,1.16-.327l-.163-.581c-.386.109-.772.22-1.16.328l.163.579Zm1.036-1.254a4.261,4.261,0,0,1-.447-1.031l-.579.163a4.893,4.893,0,0,0,.508,1.173l.518-.305Zm-.562-1.577a4.6,4.6,0,0,1-.014-1.126l-.6-.071a5.122,5.122,0,0,0,.014,1.276l.6-.08Zm.078-1.688a5.636,5.636,0,0,1,.351-1.095l-.554-.237a6.824,6.824,0,0,0-.383,1.2l.586.135Zm.593-1.62a10.071,10.071,0,0,1,.595-1.007l-.5-.337a10.542,10.542,0,0,0-.63,1.065l.534.278Zm.937-1.484a11.114,11.114,0,0,1,.751-.9l-.446-.407a12.241,12.241,0,0,0-.787.95l.481.362Zm1.156-1.335c.274-.281.562-.557.858-.815l-.4-.451c-.307.271-.6.551-.889.843l.429.423Zm1.306-1.2q.458-.379.934-.733l-.356-.486c-.328.24-.649.5-.961.755l.383.463Zm1.417-1.08c.324-.229.654-.447.991-.659l-.322-.51c-.342.216-.681.442-1.014.674l.345.494Zm1.5-.971c.339-.2.687-.4,1.035-.591l-.285-.53c-.356.193-.711.393-1.058.6l.308.517Zm1.563-.87q.53-.273,1.07-.525l-.256-.545c-.368.172-.731.349-1.092.535l.277.535Zm1.611-.772c.365-.162.737-.305,1.1-.464l-.223-.559c-.376.152-.75.308-1.12.473l.243.551Zm1.656-.681-.133-.355-.054.136c-.149-.3-.3-.6-.449-.9l.539-.267c.2.395.4.8.6,1.2l-.5.189Zm-.365-1.925c-.173-.359-.358-.72-.535-1.078l-.54.267c.177.359.362.718.535,1.079l.54-.268Zm-.8-1.617c-.179-.361-.354-.721-.534-1.079l-.539.265c.179.359.355.72.534,1.08l.54-.267Zm-.8-1.62-.532-1.08-.541.267.532,1.08Z" transform="translate(-399.036 -119.156)" fill="#13aac9" fill-rule="evenodd"/>
          </g>
          <path id="Trazado_36176" data-name="Trazado 36176" d="M509.5,241.019,496.83,233.4l-7.954,2.795-33.5-19.374,7.648-3.721-35.375-21.287L457.632,174.5,539.5,223.7Z" transform="translate(-350.21 -96.94)" fill="#c5c5d9" fill-rule="evenodd" opacity="0.5" style="mix-blend-mode: multiply;isolation: isolate"/>
          <path id="Trazado_36177" data-name="Trazado 36177" d="M479.5,236.366l65.228,37.725L644.911,216.6l-65.218-37.724Z" transform="translate(-328.443 -95.102)" fill="#733b36" fill-rule="evenodd"/>
          <g id="Grupo_11916" data-name="Grupo 11916" transform="translate(189.046 101.058)">
            <g id="Grupo_11914" data-name="Grupo 11914">
              <path id="Trazado_36178" data-name="Trazado 36178" d="M556.182,191.051l-49.925,29.037,70.336,39.945,48.264-27.965Z" transform="translate(-506.257 -191.051)" fill="#c5c5d9" fill-rule="evenodd" opacity="0.5" style="mix-blend-mode: multiply;isolation: isolate"/>
              <g id="Grupo_11913" data-name="Grupo 11913" transform="translate(4.401 0.037)">
                <g id="Grupo_11912" data-name="Grupo 11912">
                  <g id="Grupo_11909" data-name="Grupo 11909" transform="translate(0 1.785)">
                    <path id="Trazado_36179" data-name="Trazado 36179" d="M586.3,209.428l-29.6-17.094L510,219.467c9.534,5.5,18.879,11.473,28.417,16.972.669.385,1.523.315,2.191.7l18.981-10.174,27.715-16.959-.552-.318Z" transform="translate(-509.086 -192.334)" fill="#17667a" fill-rule="evenodd"/>
                    <path id="Trazado_36180" data-name="Trazado 36180" d="M578.256,204.781c.217.858,1.472,2.428,2.358,1.86L533.986,233.8c-.936.652-2.3-.9-2.426-1.89Z" transform="translate(-500.037 -187.109)" fill="#0e4654" fill-rule="evenodd"/>
                    <path id="Trazado_36181" data-name="Trazado 36181" d="M564.042,250.669,603.819,228.5l6.913-4.966-29.606-17.093-.54-.314-.459-.264L533.433,233c.28.162.581.572.859.734C544.216,239.458,554.119,244.94,564.042,250.669Z" transform="translate(-499.251 -186.656)" fill="#17667a" fill-rule="evenodd"/>
                    <path id="Trazado_36182" data-name="Trazado 36182" d="M601.683,218.307l.91,1.829-46.7,27.137-.906-1.829Z" transform="translate(-490.201 -181.431)" fill="#0e4654" fill-rule="evenodd"/>
                    <path id="Trazado_36183" data-name="Trazado 36183" d="M510.273,211.445q15.3,8.836,30.607,17.672a3.223,3.223,0,0,0,1.326,1.766c.591.341,1.1.226,1.333-.23,10.2,5.646,20.406,11.773,30.609,17.672l.906,1.829L543.615,232a1.918,1.918,0,0,1-1.408-.274,4.657,4.657,0,0,1-1.462-1.383l-31.387-18.122Z" transform="translate(-509.357 -184.312)" fill="#145a6b" fill-rule="evenodd"/>
                  </g>
                  <g id="Grupo_11911" data-name="Grupo 11911" transform="translate(1.171)">
                    <path id="Trazado_36184" data-name="Trazado 36184" d="M556.87,191.077c1.262,1.55,7.661,3.344,8.645,3.667a62.176,62.176,0,0,1,12.278,5.118,32.919,32.919,0,0,1,10.812,9.8L541.91,236.8A32.235,32.235,0,0,0,531.1,227a59.479,59.479,0,0,0-10.793-4.675c-2.074-.706-8.58-2.212-10.086-4.061C510.135,218.182,552.536,193.6,556.87,191.077Z" transform="translate(-510.167 -191.077)" fill="#f2f2fc" fill-rule="evenodd"/>
                    <path id="Trazado_36185" data-name="Trazado 36185" d="M557.064,194.109c6.419.463,19.674,3.85,20.518,10.9l-39.1,23.315c-5.893-6.175-16.313-5.476-22.61-10.6Z" transform="translate(-507.794 -189.804)" fill="#f9f9fe" fill-rule="evenodd"/>
                    <path id="Trazado_36186" data-name="Trazado 36186" d="M554.817,243.828l46.7-27.133-.009,2.142-46.694,27.133Z" transform="translate(-491.449 -180.323)" fill="#d1d1e6" fill-rule="evenodd"/>
                    <path id="Trazado_36187" data-name="Trazado 36187" d="M601.986,215.37a85.672,85.672,0,0,0,7.976,6.2,5.807,5.807,0,0,0,.9.433l-46.694,27.132a3.313,3.313,0,0,1-.469-.2c-.138-.067-.278-.142-.429-.23a85.418,85.418,0,0,1-7.972-6.2c-5.238-4.271-15.627-12.656-22.756-11.152l46.695-27.137C586.576,202.833,596.6,210.97,601.986,215.37Z" transform="translate(-500.797 -185.627)" fill="#f2f2fc" fill-rule="evenodd"/>
                    <path id="Trazado_36188" data-name="Trazado 36188" d="M595.258,212.026a85.67,85.67,0,0,0,7.976,6.2,5.8,5.8,0,0,0,.9.433l-46.695,27.132a3.311,3.311,0,0,1-.469-.2c-.138-.067-.278-.142-.429-.23a85.418,85.418,0,0,1-7.972-6.2c2.093,1.237,5.533,3.866,8.384,5.37l44.707-25.9C600.181,216.674,596.743,213.963,595.258,212.026Z" transform="translate(-494.069 -182.283)" fill="#e8e8f7" fill-rule="evenodd"/>
                    <path id="Trazado_36189" data-name="Trazado 36189" d="M601.986,215.37c-6.223-4.258-11.47-7.031-16.664-8.364-3.129-.8-4.593.088-8.2,2.2l-33.383,19.532c-3.576,2.093-3.38,1.5-.676,3.121,3.957,2.368,9.14,7.383,12.233,10.65-5.238-4.271-16.31-11.93-22.756-11.152l46.695-27.137C586.576,202.833,596.6,210.97,601.986,215.37Z" transform="translate(-500.797 -185.627)" fill="#e8e8f7" fill-rule="evenodd"/>
                    <path id="Trazado_36190" data-name="Trazado 36190" d="M556.882,191.077c1.262,1.55,7.661,3.344,8.645,3.667a62.176,62.176,0,0,1,12.278,5.118,32.919,32.919,0,0,1,10.812,9.8L541.922,236.8A32.235,32.235,0,0,0,531.11,227a48.877,48.877,0,0,0-6.734-3.2c6.2,1.813,10.694,1.735,17.9,8.815,10.493-6.041,35.087-20.02,41.077-24.844-7.787-10.975-11.737-11.452-23.768-13.748l-3.146-.663-42.4,25.259a29.345,29.345,0,0,0,6.622,3.818l-.339-.115c-2.072-.707-8.619-2.26-10.126-4.109Z" transform="translate(-510.179 -191.077)" fill="#e8e8f7" fill-rule="evenodd"/>
                    <path id="Trazado_36191" data-name="Trazado 36191" d="M566.7,195.581c6.246,2.689,11.675,6.5,15.608,12.2l-46.695,27.137a77.873,77.873,0,0,0-10.4-9.566c3.848,1.193,9.741,6.369,11.086,7.614,10.493-6.04,37.446-20.932,43.438-25.756C578.853,205.677,576.394,200.743,566.7,195.581Z" transform="translate(-503.873 -189.186)" fill="#d1d1e6" fill-rule="evenodd"/>
                    <path id="Trazado_36192" data-name="Trazado 36192" d="M601.937,219.95l-42.2,24.543c-8.554-3.716-10.829-9.643-17.219-13.655-2.47-1.552-1.433-2.088,1.661-3.822,12.207-6.842,32.1-20.11,36.005-19.968C585.577,207.243,594.789,212.215,601.937,219.95Z" transform="translate(-497.187 -184.373)" fill="#f9f9fe" fill-rule="evenodd"/>
                    <path id="Trazado_36193" data-name="Trazado 36193" d="M510.19,210.188a3.868,3.868,0,0,0,1.082.858c1.67.963,4.638,1.8,8.189,2.963a61.78,61.78,0,0,1,11.652,4.968,32.2,32.2,0,0,1,10.812,9.806c3.517-.667,7.607.808,11.678,3.162a87.864,87.864,0,0,1,11.078,7.99,85.418,85.418,0,0,0,7.972,6.2,5.137,5.137,0,0,0,.9.427l-.008,2.142-63.36-36.579C510.186,211.477,510.186,210.833,510.19,210.188Z" transform="translate(-510.182 -183.055)" fill="#ddddef" fill-rule="evenodd"/>
                    <g id="Grupo_11910" data-name="Grupo 11910" transform="translate(0.001 27.71)">
                      <path id="Trazado_36194" data-name="Trazado 36194" d="M510.185,210.835c1.245.961,5.355,2.446,9.534,3.954a90.965,90.965,0,0,1,9.058,3.581,42.683,42.683,0,0,1,7.1,4.584,28.674,28.674,0,0,1,5.761,6.207l.033.05.058-.009c7.17-1.09,15.3,5.485,22.31,11.149a73.135,73.135,0,0,0,8.357,6.187,4.107,4.107,0,0,0,.583.264,5.028,5.028,0,0,0,.565.18v-.192c-.139-.038-.318-.1-.5-.163a4.1,4.1,0,0,1-.555-.251,73.045,73.045,0,0,1-8.333-6.17c-7.018-5.675-15.16-12.257-22.4-11.2a28.928,28.928,0,0,0-5.766-6.2,42.869,42.869,0,0,0-7.133-4.6,91.1,91.1,0,0,0-9.082-3.592c-4.329-1.563-8.587-3.1-9.595-4.019Z" transform="translate(-510.182 -210.594)" fill="#d1d1e6" fill-rule="evenodd"/>
                      <path id="Trazado_36195" data-name="Trazado 36195" d="M510.184,211.164c1.806,1.457,7.924,3.784,12.234,5.422,1.6.608,2.945,1.12,3.731,1.458a41.226,41.226,0,0,1,7.564,4.14,42.44,42.44,0,0,1,7.809,7.18l.031.035.047,0c6.759-.53,15.221,6.115,22.045,11.473,4.136,3.248,7.674,6.027,9.9,6.468v-.19c-2.177-.451-5.685-3.206-9.785-6.426-6.833-5.367-15.3-12.017-22.125-11.514a42.625,42.625,0,0,0-7.814-7.175,41.39,41.39,0,0,0-7.6-4.16c-.785-.336-2.137-.852-3.74-1.46-4.414-1.68-10.732-4.082-12.3-5.487Z" transform="translate(-510.183 -210.455)" fill="#d1d1e6" fill-rule="evenodd"/>
                      <path id="Trazado_36196" data-name="Trazado 36196" d="M510.183,211.465a5.621,5.621,0,0,0,.588.385,106.335,106.335,0,0,0,10.637,5.2c6.657,2.938,13.014,5.743,20,12.527l.023.023.031,0c6.528.77,14.287,6.432,20.893,11.253,4.511,3.291,8.486,6.193,11.191,6.893v-.193c-2.668-.711-6.61-3.589-11.083-6.852-6.613-4.827-14.379-10.493-20.95-11.284-7-6.792-13.363-9.6-20.029-12.542a105.98,105.98,0,0,1-10.618-5.188,4.947,4.947,0,0,1-.613-.407l-.067-.054Z" transform="translate(-510.183 -210.329)" fill="#d1d1e6" fill-rule="evenodd"/>
                    </g>
                  </g>
                </g>
                <path id="Trazado_36197" data-name="Trazado 36197" d="M532.726,202.339l5.771.412-1.443,3.71,7.007.412-.412,3.091,7.213,1.237-1.031,2.267" transform="translate(-499.548 -186.35)" fill="none" stroke="#733b36" stroke-miterlimit="10" stroke-width="0.5" fill-rule="evenodd"/>
              </g>
            </g>
            <g id="Grupo_11915" data-name="Grupo 11915" transform="translate(52.639 15.355)">
              <path id="Trazado_36198" data-name="Trazado 36198" d="M575.618,204.669c-10.616,7.208-24.768,17.392-32.285,19.383,4.1-4.264,19.659-13.858,30.614-21.539C576.611,200.743,578.093,202.989,575.618,204.669Z" transform="translate(-543.333 -201.866)" fill="#001e30" fill-rule="evenodd"/>
              <path id="Trazado_36199" data-name="Trazado 36199" d="M543.941,223.349c4.049-3.9,17.988-12.556,28.463-19.833.814-.565,2.835-2.175,3.329-1.065C570.39,206.791,548.575,220.747,543.941,223.349Z" transform="translate(-543.078 -201.78)" fill="#004875" fill-rule="evenodd"/>
            </g>
          </g>
        </g>
        <g id="Grupo_11952" data-name="Grupo 11952" transform="translate(10.031 4.741)">
          <g id="Grupo_11939" data-name="Grupo 11939" transform="translate(85.587 29.313)">
            <g id="Grupo_11918" data-name="Grupo 11918" transform="translate(19.719 29.188)">
              <path id="Trazado_36200" data-name="Trazado 36200" d="M487.25,190.713q13.542,7.826,27.093,15.643c.087.05.173.092.261.141a4.413,4.413,0,0,1,2.059,4.738,2.7,2.7,0,0,0,.132-.787c0,2.5-.021,4.993-.021,7.491v.1l0,.031,0,.062,0,.035-.006.054,0-.034c-.193,2.671-1.88,4.9-3.846,6.642a32.291,32.291,0,0,1-6.031,3.859,15.506,15.506,0,0,1-6.207,1.694c-.956.04-2.659.078-3.613-.659l-.967-.748-30.511-26.352c-1.4-.806-2.786-1.565-4.1-2.5-6.277-4.491-7.036-9.633-6.887-17.491a66.2,66.2,0,0,1,.514-8.815c.283-2.712,2.124-4.787,4.731-4.611a31.13,31.13,0,0,0,16.224-4.782,34.083,34.083,0,0,0-.441,4.509,57.8,57.8,0,0,0,.3,10.611,10.8,10.8,0,0,0,4.1,6.735A56.723,56.723,0,0,0,487.25,190.713Z" transform="translate(-454.24 -164.415)" fill="#c5c5d9" fill-rule="evenodd"/>
              <path id="Trazado_36201" data-name="Trazado 36201" d="M487.169,190.713q12.746,7.366,25.5,14.722a9.9,9.9,0,0,1,3.114,2.186,4.246,4.246,0,0,1,.8,3.613,2.7,2.7,0,0,0,.132-.787c0,2.5-.021,4.993-.021,7.491v.1l0,.031,0,.062,0,.035-.006.054,0-.034c-.193,2.671-1.88,4.9-3.846,6.642a32.291,32.291,0,0,1-6.031,3.859,15.506,15.506,0,0,1-6.207,1.694,6.859,6.859,0,0,1-3.809-.741l-.822-.616.439.3a43.105,43.105,0,0,0,13.458-6.657,8.029,8.029,0,0,0,3.288-5.587,21.216,21.216,0,0,0-.021-4.655c-.132-2.4-.22-3.615-2.5-4.929-8.439-4.873-25.31-14.076-32.806-20.111a7.861,7.861,0,0,1-2.7-3.145c-2.536-5.2-1.684-5.609-8.479-8.822-4.346-2.056-9.416-3.39-11.256-.273-.2.348-.41.721-.615,1.117.07-.781.155-1.593.258-2.449.283-2.712,2.124-4.787,4.731-4.611a31.13,31.13,0,0,0,16.224-4.782,34.083,34.083,0,0,0-.441,4.509,57.8,57.8,0,0,0,.3,10.611,10.8,10.8,0,0,0,4.1,6.735A56.723,56.723,0,0,0,487.169,190.713Z" transform="translate(-454.16 -164.415)" fill="#b6b6d1" fill-rule="evenodd"/>
              <path id="Trazado_36202" data-name="Trazado 36202" d="M510.689,206.717a17.767,17.767,0,0,1,.1,1.881,37.61,37.61,0,0,1-.114,4.425c-.349,4.336-10.268,8.433-14.568,10.171.588-6.45-5.46-10.263-13.613-15.028-9.165-5.355-20.027-11.489-22.681-13.432-3.5-2.561-5.47-5.825-5.467-11.358,0-5.662,13.2-10.572,18.592-2.571a15.273,15.273,0,0,0,4.312,4.7c8.063,5.837,22.588,13.033,30.768,17.737C509.412,204.047,510.548,204.937,510.689,206.717Z" transform="translate(-454.341 -159.296)" fill="#d6d6e8" fill-rule="evenodd"/>
              <path id="Trazado_36203" data-name="Trazado 36203" d="M507.768,207.791c-.219,3.25.3,4.127-2.253,6.463a48.945,48.945,0,0,1-9.849,6.4c-1.458-15.059-27.7-13.033-39.9-32.148-2.121-3.324,5.884-12.759,17.088-4.205,7.8,5.959,23.242,13.577,31.773,18.484C506.851,204.066,507.94,205.206,507.768,207.791Z" transform="translate(-453.885 -157.532)" fill="#e8e8f7" fill-rule="evenodd"/>
              <path id="Trazado_36204" data-name="Trazado 36204" d="M505.529,206.646c-.016,3.091.427,4.08-2.137,6.135-2.125,1.7-6.314,4.589-8.612,6.082-.517.336-35.867-25.111-37.9-28.3-2.013-3.153,6.593-9.184,13.7-5,8.03,4.731,23.523,11.98,31.621,16.637C504.306,203.414,505.541,204.143,505.529,206.646Z" transform="translate(-453.401 -156.137)" fill="#f2f2fc" fill-rule="evenodd"/>
              <path id="Trazado_36205" data-name="Trazado 36205" d="M491.024,198.767a65.368,65.368,0,0,0-9.562,4.892l2.864,5.564c4.481-2.615,5.737-3.639,8.245-5.3C496.212,201.517,493.655,197.655,491.024,198.767Z" transform="translate(-442.957 -150.078)" fill="#f9f9fe" fill-rule="evenodd"/>
              <path id="Trazado_36206" data-name="Trazado 36206" d="M490.855,199.7a96.73,96.73,0,0,0-8.553,4.644,2.214,2.214,0,0,1,1.782,2.347c4.692-2.707,6.03-3.505,7.951-4.748C493.478,201.008,492.539,198.9,490.855,199.7Z" transform="translate(-442.604 -149.678)" fill="#fff" fill-rule="evenodd"/>
            </g>
            <g id="Grupo_11919" data-name="Grupo 11919" transform="translate(40.542 62.032)">
              <path id="Trazado_36207" data-name="Trazado 36207" d="M469.008,194.8l12.577-7.255,15.075,8.7-12.69,7.244Z" transform="translate(-469.008 -187.549)" fill="#000002" fill-rule="evenodd"/>
              <path id="Trazado_36208" data-name="Trazado 36208" d="M469.008,194.8l12.576-7.255c-5.5,6.725-3.578,9.8,2.385,15.945Z" transform="translate(-469.008 -187.549)" fill="#19202b" fill-rule="evenodd"/>
            </g>
            <g id="Grupo_11920" data-name="Grupo 11920" transform="translate(30.504 54.729)">
              <path id="Trazado_36209" data-name="Trazado 36209" d="M483.9,183.162q12.925,7.469,25.855,14.927l-.478.244c-5.8,3.074-17.34,9.548-19.218,12.359-1.448,2.165-1.5,4.678-1.427,7.175l-26.057-22.506c.061-.1.126-.2.193-.307,1.88-2.811,13.414-9.285,19.219-12.359l.572-.291C483.01,182.658,483.459,182.909,483.9,183.162Z" transform="translate(-461.671 -182.405)" fill="#733b36" fill-rule="evenodd"/>
              <path id="Trazado_36210" data-name="Trazado 36210" d="M478.74,183.162q12.746,7.366,25.5,14.722.177.1.362.2l-.484.246c-.73.388-1.552.828-2.432,1.308-6.846-3.937-18.615-10.421-26.832-15.886.708-.385,1.373-.74,1.975-1.059l.572-.291C477.854,182.658,478.3,182.909,478.74,183.162Z" transform="translate(-456.515 -182.405)" fill="#733b36" fill-rule="evenodd"/>
              <path id="Trazado_36211" data-name="Trazado 36211" d="M489.224,211.757c-2.458-2.358-6.011-4.5-10.092-6.89-5.744-3.356-12.155-7.018-16.793-9.764a7.594,7.594,0,0,1,.522-.916c1.437-2.15,8.517-6.439,14.365-9.714,8.293,5.345,20.281,11.358,27.428,15.468l.081.047c-5.889,3.29-13.13,7.661-14.584,9.836A7.7,7.7,0,0,0,489.224,211.757Z" transform="translate(-461.768 -181.537)" fill="#733b36" fill-rule="evenodd"/>
              <path id="Trazado_36212" data-name="Trazado 36212" d="M489.353,211.37c-5.841-5.784-17.667-8.25-27.363-15.393a7.816,7.816,0,0,1,1.018-2.233c1.227-1.833,6.559-5.225,11.73-8.215,8.28,5.3,20.075,11.219,27.137,15.281.131.075.258.15.38.224-5.242,3.021-10.714,6.487-11.957,8.347A7.676,7.676,0,0,0,489.353,211.37Z" transform="translate(-461.915 -181.094)" fill="#733b36" fill-rule="evenodd"/>
              <path id="Trazado_36213" data-name="Trazado 36213" d="M488.88,215.509c-6.187-4.238-18.844-13.4-26.943-19.712a7.912,7.912,0,0,1,1.093-2.517c1.015-1.518,4.844-4.1,9.067-6.645,8.452,4.589,20.888,10.512,27.853,14.517.233.135.456.263.666.388-4.688,2.766-9.183,5.713-10.295,7.377C488.986,210.913,488.839,213.206,488.88,215.509Z" transform="translate(-461.937 -180.629)" fill="#733b36" fill-rule="evenodd"/>
            </g>
            <path id="Trazado_36214" data-name="Trazado 36214" d="M490.359,192.909l-6.965-3.634-9.672,5.5,7.012,3.629Z" transform="translate(-426.487 -124.792)" fill="#000002" fill-rule="evenodd" opacity="0.5" style="mix-blend-mode: multiply;isolation: isolate"/>
            <g id="Grupo_11935" data-name="Grupo 11935">
              <g id="Grupo_11921" data-name="Grupo 11921">
                <path id="Trazado_36215" data-name="Trazado 36215" d="M441.71,151.595a14.378,14.378,0,0,1,2.963-4.4,14.211,14.211,0,0,1,4.63-3.007c1.958-.7,3.819-.177,5.618.541a35.186,35.186,0,0,1,5.131,2.925,12.8,12.8,0,0,1,3.633,3.574c1.549,2.624.166,11.381.061,13.127,0,0-.04-.021-.124-.074l-12.308,6.857a1.105,1.105,0,0,1-.564.439c-4.823-3.159-7.79-4.9-9.263-7.019a6.71,6.71,0,0,1-1.036-3.8c.087-1.654.179-3.307.3-4.948A11.6,11.6,0,0,1,441.71,151.595Z" transform="translate(-440.452 -143.857)" fill="#c5c5d9" fill-rule="evenodd"/>
                <path id="Trazado_36216" data-name="Trazado 36216" d="M454.694,150.054c.339-.189.679-.376,1.017-.566,3.1-1.732,5.482-.324,5.274,3.111-.217,3.647-.434,7.3-.574,9.629-3.708,2.067-8.6,4.792-12.308,6.857.138-2.333.355-5.98.575-9.629A12.986,12.986,0,0,1,454.694,150.054Z" transform="translate(-437.24 -141.805)" fill="#b6ccd6" fill-rule="evenodd"/>
                <path id="Trazado_36217" data-name="Trazado 36217" d="M460.792,149.3c-5.012,1.907-9.278,5.159-10.256,13.62-.058.5-.061,2.03-.372,2.289-1.229,1.021-9.106-4.752-9.126-6.334a16.14,16.14,0,0,1,1.312-7.611c1.264-2.7,4.357-6.422,7.925-6.909C453.108,143.971,456.223,145.872,460.792,149.3Z" transform="translate(-440.208 -143.667)" fill="#d6d6e8" fill-rule="evenodd"/>
                <path id="Trazado_36218" data-name="Trazado 36218" d="M459.015,149.045c-4.573,1.741-8.313,5.022-9.2,12.742-.052.457-.055,1.851-.339,2.087-1.122.933-7.928-4.336-7.946-5.778a14.713,14.713,0,0,1,1.265-6.91c1.154-2.466,3.978-5.861,7.232-6.307C452.609,144.526,455.04,146.157,459.015,149.045Z" transform="translate(-440.003 -143.448)" fill="#f2f2fc" fill-rule="evenodd"/>
                <path id="Trazado_36219" data-name="Trazado 36219" d="M444.244,148.024c2,.277,6.2,2.834,7.576,4.33a8.526,8.526,0,0,0-1.729,3.19,36.09,36.09,0,0,1-7.537-4.427C442.178,150.446,443.126,148.267,444.244,148.024Z" transform="translate(-439.605 -142.107)" fill="#f9f9fe" fill-rule="evenodd"/>
                <path id="Trazado_36220" data-name="Trazado 36220" d="M444.1,148.784a32.854,32.854,0,0,1,6.47,3.652,8.1,8.1,0,0,1-.919,1.694,30.7,30.7,0,0,1-6.436-3.735A1.876,1.876,0,0,1,444.1,148.784Z" transform="translate(-439.301 -141.788)" fill="#fff" fill-rule="evenodd"/>
              </g>
              <g id="Grupo_11928" data-name="Grupo 11928" transform="translate(51.744 57.212)">
                <g id="Grupo_11922" data-name="Grupo 11922" transform="translate(1.652 8.71)">
                  <path id="Trazado_36221" data-name="Trazado 36221" d="M479.18,194.64l1.186-.592,5.175-3.088-1.118-.671-6.362,3.68Z" transform="translate(-478.061 -190.288)" fill="#333647" fill-rule="evenodd"/>
                  <path id="Trazado_36222" data-name="Trazado 36222" d="M479.247,193.552l-1.185-.673v.4l1.163.659Z" transform="translate(-478.061 -189.201)" fill="#5e627d" fill-rule="evenodd"/>
                  <path id="Trazado_36223" data-name="Trazado 36223" d="M485.2,190.761l-.022.39-6.3,3.681-.01-.411Z" transform="translate(-477.721 -190.09)" fill="#1f202b" fill-rule="evenodd"/>
                </g>
                <g id="Grupo_11923" data-name="Grupo 11923" transform="translate(0 7.695)">
                  <path id="Trazado_36224" data-name="Trazado 36224" d="M478.016,193.925l1.186-.591,5.175-3.088-1.118-.671-6.362,3.68Z" transform="translate(-476.898 -189.573)" fill="#333647" fill-rule="evenodd"/>
                  <path id="Trazado_36225" data-name="Trazado 36225" d="M478.083,192.837l-1.185-.672v.4l1.163.659Z" transform="translate(-476.898 -188.486)" fill="#5e627d" fill-rule="evenodd"/>
                  <path id="Trazado_36226" data-name="Trazado 36226" d="M484.037,190.046l-.022.391-6.3,3.68-.01-.41Z" transform="translate(-476.557 -189.375)" fill="#1f202b" fill-rule="evenodd"/>
                </g>
                <g id="Grupo_11924" data-name="Grupo 11924" transform="translate(1.797 5.879)">
                  <path id="Trazado_36227" data-name="Trazado 36227" d="M481.18,191.819l1.186-.591,1.9-1.171-3.016-1.762-3.084,1.763Z" transform="translate(-478.163 -188.294)" fill="#333647" fill-rule="evenodd"/>
                  <path id="Trazado_36228" data-name="Trazado 36228" d="M481.247,191.3l-3.083-1.763v1.118l3.06,1.75Z" transform="translate(-478.163 -187.773)" fill="#5e627d" fill-rule="evenodd"/>
                  <path id="Trazado_36229" data-name="Trazado 36229" d="M483.361,189.536l-.022,1.106-3.018,1.762-.008-1.124Z" transform="translate(-477.261 -187.773)" fill="#1f202b" fill-rule="evenodd"/>
                </g>
                <g id="Grupo_11925" data-name="Grupo 11925" transform="translate(2.875 2.127)">
                  <path id="Trazado_36230" data-name="Trazado 36230" d="M479.2,185.651l0,6.491-.028.268-.034-.32-.218-6.313Z" transform="translate(-478.922 -185.651)" fill="#4d4d4d" fill-rule="evenodd"/>
                  <path id="Trazado_36231" data-name="Trazado 36231" d="M479.053,185.9l.082,6.133.016.325-.034-.32-.14-6.25Z" transform="translate(-478.899 -185.596)" fill="#e6e6e6" fill-rule="evenodd"/>
                </g>
                <path id="Trazado_36232" data-name="Trazado 36232" d="M481.3,188.028l.67-.333,1.07-.661-1.7-.994-1.74.995Z" transform="translate(-475.765 -183.362)" fill="#333647" fill-rule="evenodd"/>
                <path id="Trazado_36233" data-name="Trazado 36233" d="M481.337,187.734l-1.74-.995v2.469l1.74.995Z" transform="translate(-475.765 -183.068)" fill="#5e627d" fill-rule="evenodd"/>
                <path id="Trazado_36234" data-name="Trazado 36234" d="M480.8,187.734l1.74-.995v2.469l-1.7.995Z" transform="translate(-475.262 -183.068)" fill="#1f202b" fill-rule="evenodd"/>
                <g id="Grupo_11926" data-name="Grupo 11926" transform="translate(4.543)">
                  <path id="Trazado_36235" data-name="Trazado 36235" d="M481.1,185.32l.393-.2.627-.388-1-.583-1.02.584Z" transform="translate(-480.098 -184.153)" fill="#333647" fill-rule="evenodd"/>
                  <path id="Trazado_36236" data-name="Trazado 36236" d="M481.118,185.148l-1.02-.584v2.877l1.02.584Z" transform="translate(-480.098 -183.981)" fill="#5e627d" fill-rule="evenodd"/>
                  <path id="Trazado_36237" data-name="Trazado 36237" d="M480.8,185.148l1.02-.584v2.877l-1,.583Z" transform="translate(-479.802 -183.981)" fill="#1f202b" fill-rule="evenodd"/>
                </g>
                <g id="Grupo_11927" data-name="Grupo 11927" transform="translate(1.738 0.961)">
                  <path id="Trazado_36238" data-name="Trazado 36238" d="M479.824,186.82l.67-.334,1.07-.661-1.7-.994-1.74.995Z" transform="translate(-478.122 -184.83)" fill="#333647" fill-rule="evenodd"/>
                  <path id="Trazado_36239" data-name="Trazado 36239" d="M479.862,186.526l-1.74-.995v.228l1.728.988Z" transform="translate(-478.122 -184.536)" fill="#5e627d" fill-rule="evenodd"/>
                  <path id="Trazado_36240" data-name="Trazado 36240" d="M481.055,185.531l-.013.221-1.707.976,0-.212Z" transform="translate(-477.613 -184.536)" fill="#1f202b" fill-rule="evenodd"/>
                </g>
              </g>
              <path id="Trazado_36241" data-name="Trazado 36241" d="M488.3,186.442l-44.2-25.3.038-1.37c.016-.318.047-1,.082-1.309a9.876,9.876,0,0,1,2.209-4.881,18.748,18.748,0,0,1,4.928-4.166,27.291,27.291,0,0,1,6.237-3c2.77-.8,5.445-.929,7.995.476-.016-.009-.034-.016-.051-.024l.044.024q21.6,12.437,43.171,24.924c2.794,1.617,5.523,3.467,7.208,6.321a10.575,10.575,0,0,1,1.252,3.271c.663,3.38-.664,11.179-.982,14.308-.023.212-.017.193-.045.365a6.819,6.819,0,0,1-1.337,3.065,13.031,13.031,0,0,1-2.892,2.99,31.382,31.382,0,0,1-6.65,3.791,11.457,11.457,0,0,1-7.158.548,7.086,7.086,0,0,1-1.765-.785,29.089,29.089,0,0,1-3.166-2.336l.677-8.357.011-.115C494.286,191.039,491.352,188.259,488.3,186.442Z" transform="translate(-438.921 -143.031)" fill="#d6d6e8" fill-rule="evenodd"/>
              <path id="Trazado_36242" data-name="Trazado 36242" d="M444.155,158.975c.013-.2.027-.383.041-.508a9.876,9.876,0,0,1,2.209-4.881,18.748,18.748,0,0,1,4.928-4.166,27.291,27.291,0,0,1,6.237-3c2.77-.8,5.445-.929,7.995.476-.016-.009-.034-.016-.051-.024l.044.024q21.6,12.437,43.171,24.924c2.794,1.617,5.523,3.467,7.208,6.321a10.575,10.575,0,0,1,1.252,3.271c.663,3.38-.664,11.179-.982,14.308-.023.212-.017.193-.045.365a6.819,6.819,0,0,1-1.337,3.065,13.031,13.031,0,0,1-2.892,2.99,31.382,31.382,0,0,1-6.65,3.791,11.457,11.457,0,0,1-7.158.548,7.086,7.086,0,0,1-1.765-.785,29.089,29.089,0,0,1-3.166-2.336l.024-.714a4.915,4.915,0,0,0,4.035.508c4.776-1.587,13.025-4.4,15.793-9.788A18.17,18.17,0,0,0,514.8,183.01c-.432-3.2-2.189-7.051-3.886-8.277l-42.651-24.812c-4.289-2.5-5.719-3.662-10.711-2.087C451.67,149.69,445.289,153.533,444.155,158.975Z" transform="translate(-438.898 -143.031)" fill="#c5c5d9" fill-rule="evenodd"/>
              <path id="Trazado_36243" data-name="Trazado 36243" d="M444.2,158.61c.209-4.658,7.018-7.885,12.566-9.635,4.614-1.455,6.324-.08,10.289,2.226L508,174.14c3.652,2.639,4.9,11.034,3.139,14.695-2.027,4.205-9.688,7.748-14.344,9.318-.238-3.534-.491-9.041-4.244-11.4C478.395,177.83,449.85,162.033,444.2,158.61Z" transform="translate(-438.877 -141.959)" fill="#e8e8f7" fill-rule="evenodd"/>
              <path id="Trazado_36244" data-name="Trazado 36244" d="M444.2,158.581c-.033-4.587,5.08-6.992,9.921-7.946,4.1-.809,9.707,1.663,13.13,3.654l36.667,19.8c5.371,3.691,6.28,9.494,3.714,12.447-2.779,3.2-9.571,6.42-13.288,8.785-.206-3.052-2.886-7.785-6.128-9.825C476,177.8,449.078,161.537,444.2,158.581Z" transform="translate(-438.877 -141.078)" fill="#f2f2fc" fill-rule="evenodd"/>
              <path id="Trazado_36245" data-name="Trazado 36245" d="M490.723,171.008c-3.152.434-9.982,4.435-12.282,6.778a12.358,12.358,0,0,1,2.4,4.995c2.7-.984,10.076-5.015,12.231-6.931C493.72,174.8,492.447,171.389,490.723,171.008Z" transform="translate(-424.506 -132.46)" fill="#f9f9fe" fill-rule="evenodd"/>
              <path id="Trazado_36246" data-name="Trazado 36246" d="M489.942,172.2c-2.776.862-8.651,4.393-10.484,5.716a11.621,11.621,0,0,0,1.272,2.649c2.3-.838,8.6-4.214,10.44-5.845A2.745,2.745,0,0,0,489.942,172.2Z" transform="translate(-424.079 -131.96)" fill="#fff" fill-rule="evenodd"/>
              <path id="Trazado_36247" data-name="Trazado 36247" d="M498.133,202.414a11.064,11.064,0,0,1-1.391-.7c-3.034-1.758-6.058-3.569-9.092-5.324a3.1,3.1,0,0,1-1.107-2.023c-.65-1.792-.991-4.616-1.357-5.6a14.873,14.873,0,0,0-2.047-3.8,10.037,10.037,0,0,0-2.388-2.159q-6-3.471-12-6.927c-1.88-1.141-7.627-3.288-8.321,1.867a66.429,66.429,0,0,0-.514,8.815c-.162,8.472.618,13.316,8.358,18.133q16.3,9.4,32.586,18.806a.716.716,0,0,1,.311.549q-.011,3.738-.021,7.489c.072,1.042.159,1.488.612,1.938Q473.366,217.1,444.985,200.7a3.962,3.962,0,0,1-2.3-3.869c-.058-2.343-.057-4.707,0-7.046.007-.312.01-.63.023-.941.044-1.742.148-3.24.319-4.762.1-.906.226-1.82.375-2.8.47-3.008.93-5.994,1.153-9.04.346-4.887.021-9.781.138-14.67.02-.872.214-2.831.8-2.516.514.274,1.364.707,2.056,1.1q22.087,12.757,44.18,25.513c3.227,1.922,6.011,4.685,5.6,8.49l.517,8.791C497.886,199.535,497.993,201.784,498.133,202.414Z" transform="translate(-439.531 -139.169)" fill="#e8e8f7" fill-rule="evenodd"/>
              <path id="Trazado_36248" data-name="Trazado 36248" d="M501.145,231.373c.072,1.042.159,1.488.612,1.938q-28.39-16.383-56.772-32.781a3.962,3.962,0,0,1-2.3-3.869c-.058-2.343-.057-4.707,0-7.046a119.067,119.067,0,0,1,1.428-13.329c.183-1.4.338-2.8.442-4.212.392-5.543-.078-11.1.212-16.642.18,5.634,1.7,31.71,5.739,40.3C454.667,204.569,486.263,222.3,501.145,231.373Z" transform="translate(-439.531 -138.998)" fill="#f2f2fc" fill-rule="evenodd"/>
              <path id="Trazado_36249" data-name="Trazado 36249" d="M492.877,196.889a11.064,11.064,0,0,1-1.391-.7c-3.034-1.758-6.133-3.544-9.167-5.3-1.469-.812-1.536-3.572-1.766-4.7-.754-3.686-1.6-6.674-5.059-8.912q-6-3.471-12-6.927c-1.88-1.141-7.627-3.288-8.321,1.867.189-1.5.415-2.886,2.013-3.672,1.543-.757,3.4-.332,6.447,1.164,4.014,1.968,10.056,5.51,13.718,7.843,2.649,1.579,3.7,4.992,4.41,8.148.5,2.2.307,2.475,2.189,3.708a48.71,48.71,0,0,0,8.668,4.34C492.66,194.6,492.755,196.345,492.877,196.889Z" transform="translate(-434.275 -133.644)" fill="#d6d6e8" fill-rule="evenodd"/>
              <g id="Grupo_11929" data-name="Grupo 11929" transform="translate(5.825 14.224)">
                <path id="Trazado_36250" data-name="Trazado 36250" d="M447.25,153.876c1.4.193,39.113,21.387,46.367,26.139a6.765,6.765,0,0,1,2.526,2.962c.625,1.467,1.143,9.038.274,9.079-.231.078-1.741-3.172-3.973-5.583-1.1-1.191-4.526-3.121-6.183-4.073-13.627-7.844-40.289-23.318-41.227-24.153C443.716,157.348,445.339,153.815,447.25,153.876Z" transform="translate(-444.555 -153.875)" fill="#f9f9fe" fill-rule="evenodd"/>
                <path id="Trazado_36251" data-name="Trazado 36251" d="M446.578,154.853c1.292.4,40.152,22.586,46.473,26.334,1.157.687,2.155,5.061,2.713,9.136-1.329-3.4-3.26-6.433-4.268-6.991-8.956-4.965-45.031-25.712-45.934-26.514C444.9,156.241,445.727,154.739,446.578,154.853Z" transform="translate(-444.233 -153.468)" fill="#fff" fill-rule="evenodd"/>
              </g>
              <path id="Trazado_36252" data-name="Trazado 36252" d="M460.06,190.168c6.207,3.622,27.765,15.826,34.052,19.946a6.778,6.778,0,0,1,2.527,2.962c.623,1.467-.246,7.248-.483,7.264-.233.078-.984-1.356-3.217-3.767-1.1-1.191-4.526-3.121-6.182-4.073-10.77-6.2-23.127-13.824-28.3-17.162-3.24-2.091-3.466-2.435-3.846-6.771a38.291,38.291,0,0,1,.308-8.1C455.857,183.3,456.674,188.192,460.06,190.168Z" transform="translate(-434.55 -128.487)" fill="#f9f9fe" fill-rule="evenodd"/>
              <path id="Trazado_36253" data-name="Trazado 36253" d="M454.973,182.173a17.056,17.056,0,0,0,2.08,6.693,6.264,6.264,0,0,0,2.625,2.219c6.781,3.791,28.56,16.667,34,19.894a4.617,4.617,0,0,1,1.671,3.057,28.11,28.11,0,0,1,.285,4.264,14.943,14.943,0,0,0-1.474-3.175,5.824,5.824,0,0,0-2.037-2c-7.912-4.509-29.082-17.084-34.292-20.4-1.211-.77-1.525-1.555-1.939-3.3A34.667,34.667,0,0,1,454.973,182.173Z" transform="translate(-434.358 -127.773)" fill="#fff" fill-rule="evenodd"/>
              <g id="Grupo_11930" data-name="Grupo 11930" transform="translate(48.832 45.038)">
                <path id="Trazado_36254" data-name="Trazado 36254" d="M474.859,178.518a2.208,2.208,0,0,1,1.059-2.06,5.951,5.951,0,0,1,1.438-.75,2.268,2.268,0,0,1,1.012-.114,1.992,1.992,0,0,1,.755.27,3.2,3.2,0,0,1,1.026,1.024,3.5,3.5,0,0,1,.575,1.621,1.99,1.99,0,0,1-.376,1.337A3.973,3.973,0,0,1,479,180.926a2.806,2.806,0,0,1-1.973.42,2.337,2.337,0,0,1-1.005-.558A3.639,3.639,0,0,1,474.859,178.518Z" transform="translate(-474.846 -175.579)" fill="#d6d6e8" fill-rule="evenodd"/>
                <path id="Trazado_36255" data-name="Trazado 36255" d="M474.858,178.518a1.987,1.987,0,0,1,.409-1.427,2.658,2.658,0,0,0-.146.645c.823,2.563,2.034,2.909,2.926,2.862a4.123,4.123,0,0,0,2.057-2.249,2.545,2.545,0,0,0-2.239-2.756,2.125,2.125,0,0,1,.5,0,1.991,1.991,0,0,1,.755.27,3.2,3.2,0,0,1,1.026,1.024,3.5,3.5,0,0,1,.575,1.621,1.99,1.99,0,0,1-.376,1.337A3.973,3.973,0,0,1,479,180.926a2.806,2.806,0,0,1-1.973.42,2.337,2.337,0,0,1-1.005-.558A3.639,3.639,0,0,1,474.858,178.518Z" transform="translate(-474.846 -175.579)" fill="#c5c5d9" fill-rule="evenodd"/>
                <path id="Trazado_36256" data-name="Trazado 36256" d="M478.24,175.812a2.015,2.015,0,0,1,1.2,2.175,3.937,3.937,0,0,1-1.85,2.061c-.02-.681-1.228-1.113-1.613-1.559-.463-.538-.916-.542-.883-.853a1.938,1.938,0,0,1,.537-.886C476.245,176.106,477.426,175.462,478.24,175.812Z" transform="translate(-474.742 -175.522)" fill="#e8e8f7" fill-rule="evenodd"/>
                <path id="Trazado_36257" data-name="Trazado 36257" d="M477.694,176.073a1.562,1.562,0,0,1,.931,1.684,3.054,3.054,0,0,1-1.433,1.6c-.016-.528-.951-.862-1.249-1.208-.359-.416-.708-.419-.684-.66a1.519,1.519,0,0,1,.416-.686A2.118,2.118,0,0,1,477.694,176.073Z" transform="translate(-474.673 -175.404)" fill="#f2f2fc" fill-rule="evenodd"/>
                <path id="Trazado_36258" data-name="Trazado 36258" d="M475.281,177.084a1.173,1.173,0,0,1,1.969.227,1.89,1.89,0,0,1,.145,1.763A21.918,21.918,0,0,0,475.281,177.084Z" transform="translate(-474.664 -175.135)" fill="#fff" fill-rule="evenodd"/>
                <path id="Trazado_36259" data-name="Trazado 36259" d="M476.394,177.049a3.267,3.267,0,0,1,1.481,2.563c0,.941-.673,1.322-1.491.85A3.277,3.277,0,0,1,474.9,177.9C474.907,176.957,475.577,176.575,476.394,177.049Z" transform="translate(-474.823 -175.047)" fill="#f2f2fc" fill-rule="evenodd"/>
              </g>
              <g id="Grupo_11933" data-name="Grupo 11933" transform="translate(38.672 8.353)">
                <g id="Grupo_11931" data-name="Grupo 11931">
                  <path id="Trazado_36260" data-name="Trazado 36260" d="M476.042,151.439l.01,12.108a2.074,2.074,0,0,1-1.221,1.718,6.642,6.642,0,0,1-5.341.277c-.8-.322-1.692-.917-1.779-1.851,0-.028-.008-.057-.01-.085v-.037l-.01-12.108Z" transform="translate(-467.69 -149.027)" fill="#733b36" fill-rule="evenodd"/>
                  <path id="Trazado_36261" data-name="Trazado 36261" d="M473.885,165.533a6.835,6.835,0,0,1-4.785.007,4.875,4.875,0,0,1-.481-.224V151.455l5.266-.013Z" transform="translate(-467.301 -149.026)" fill="#733b36" fill-rule="evenodd"/>
                  <path id="Trazado_36262" data-name="Trazado 36262" d="M472.514,165.843a7.087,7.087,0,0,1-3.15-.114V151.453l3.15-.009Z" transform="translate(-466.988 -149.025)" fill="#733b36" fill-rule="evenodd"/>
                  <path id="Trazado_36263" data-name="Trazado 36263" d="M471.571,165.943a7.248,7.248,0,0,1-1.694-.06V151.449l1.694,0Z" transform="translate(-466.773 -149.024)" fill="#733b36" fill-rule="evenodd"/>
                  <path id="Trazado_36264" data-name="Trazado 36264" d="M468.925,150.444a6.531,6.531,0,0,1,5.9,0c1.626.944,1.62,2.486-.007,3.424a6.544,6.544,0,0,1-5.922,0C467.279,152.931,467.288,151.388,468.925,150.444Z" transform="translate(-467.69 -149.74)" fill="#733b36" fill-rule="evenodd"/>
                </g>
                <g id="Grupo_11932" data-name="Grupo 11932" transform="translate(2.712 0.424)">
                  <path id="Trazado_36265" data-name="Trazado 36265" d="M472.534,150.636l0,.9a.73.73,0,0,1-.43.6,2.324,2.324,0,0,1-1.874.1c-.283-.114-.595-.322-.626-.65l0-.03v-.013l0-.9Z" transform="translate(-469.601 -149.789)" fill="#c5c5d9" fill-rule="evenodd"/>
                  <path id="Trazado_36266" data-name="Trazado 36266" d="M471.777,152.237a2.4,2.4,0,0,1-1.68,0,1.834,1.834,0,0,1-.17-.08v-1.519l1.85,0Z" transform="translate(-469.464 -149.788)" fill="#d6d6e8" fill-rule="evenodd"/>
                  <path id="Trazado_36267" data-name="Trazado 36267" d="M471.295,152.346a2.5,2.5,0,0,1-1.106-.04V150.64l1.106,0Z" transform="translate(-469.354 -149.788)" fill="#e8e8f7" fill-rule="evenodd"/>
                  <path id="Trazado_36268" data-name="Trazado 36268" d="M470.964,152.381a2.6,2.6,0,0,1-.595-.02v-1.722h.595Z" transform="translate(-469.279 -149.788)" fill="#f2f2fc" fill-rule="evenodd"/>
                  <path id="Trazado_36269" data-name="Trazado 36269" d="M470.034,150.286a2.293,2.293,0,0,1,2.073,0,.635.635,0,0,1,0,1.2,2.3,2.3,0,0,1-2.081,0A.636.636,0,0,1,470.034,150.286Z" transform="translate(-469.601 -150.039)" fill="#f2f2fc" fill-rule="evenodd"/>
                </g>
              </g>
              <g id="Grupo_11934" data-name="Grupo 11934" transform="translate(4.651 24.356)">
                <path id="Trazado_36270" data-name="Trazado 36270" d="M443.757,167.955a5.218,5.218,0,0,1,2.5-4.867,13.858,13.858,0,0,1,3.4-1.769,5.385,5.385,0,0,1,2.391-.271,4.78,4.78,0,0,1,1.785.637,7.574,7.574,0,0,1,2.425,2.419,8.247,8.247,0,0,1,1.359,3.831,4.71,4.71,0,0,1-.89,3.158,9.389,9.389,0,0,1-3.182,2.548,6.621,6.621,0,0,1-4.661.992,5.519,5.519,0,0,1-2.374-1.316A8.589,8.589,0,0,1,443.757,167.955Z" transform="translate(-443.728 -161.012)" fill="#d6d6e8" fill-rule="evenodd"/>
                <path id="Trazado_36271" data-name="Trazado 36271" d="M443.755,167.955a4.693,4.693,0,0,1,.965-3.372,6.16,6.16,0,0,0-.344,1.523c1.942,6.054,4.8,6.873,6.909,6.759,1.779-.863,4.468-3.236,4.861-5.313.583-3.079-2.493-6.463-5.289-6.508a5.093,5.093,0,0,1,1.185,0,4.78,4.78,0,0,1,1.785.637,7.574,7.574,0,0,1,2.425,2.419,8.247,8.247,0,0,1,1.359,3.831,4.71,4.71,0,0,1-.89,3.158,9.389,9.389,0,0,1-3.182,2.548,6.621,6.621,0,0,1-4.661.992,5.519,5.519,0,0,1-2.374-1.316A8.589,8.589,0,0,1,443.755,167.955Z" transform="translate(-443.726 -161.012)" fill="#c5c5d9" fill-rule="evenodd"/>
                <path id="Trazado_36272" data-name="Trazado 36272" d="M451.744,161.562a4.763,4.763,0,0,1,2.84,5.138c-.338,1.789-2.838,4.124-4.369,4.868-.048-1.607-2.9-2.628-3.809-3.681-1.1-1.269-2.164-1.279-2.087-2.016a4.607,4.607,0,0,1,1.266-2.09C447.031,162.259,449.821,160.736,451.744,161.562Z" transform="translate(-443.481 -160.878)" fill="#e8e8f7" fill-rule="evenodd"/>
                <path id="Trazado_36273" data-name="Trazado 36273" d="M450.454,162.178a3.686,3.686,0,0,1,2.2,3.978c-.261,1.386-2.2,3.194-3.383,3.769-.037-1.245-2.245-2.036-2.949-2.851-.848-.982-1.675-.991-1.616-1.56a3.545,3.545,0,0,1,.981-1.619C446.805,162.718,448.966,161.538,450.454,162.178Z" transform="translate(-443.319 -160.598)" fill="#f2f2fc" fill-rule="evenodd"/>
                <path id="Trazado_36274" data-name="Trazado 36274" d="M444.754,164.567c1.56-1.836,3.609-1.026,4.65.535a4.459,4.459,0,0,1,.342,4.167A50.968,50.968,0,0,0,444.754,164.567Z" transform="translate(-443.297 -159.962)" fill="#fff" fill-rule="evenodd"/>
                <path id="Trazado_36275" data-name="Trazado 36275" d="M447.382,164.484a7.729,7.729,0,0,1,3.5,6.052c0,2.225-1.59,3.125-3.52,2.01a7.736,7.736,0,0,1-3.5-6.062C443.869,164.267,445.452,163.367,447.382,164.484Z" transform="translate(-443.671 -159.756)" fill="#f2f2fc" fill-rule="evenodd"/>
              </g>
            </g>
            <g id="Grupo_11938" data-name="Grupo 11938" transform="translate(10.643 65.855)">
              <g id="Grupo_11936" data-name="Grupo 11936" transform="translate(19.508)">
                <path id="Trazado_36276" data-name="Trazado 36276" d="M463.235,191.216q13.619,7.858,27.234,15.715c-.014.021-.031.043-.044.062-1.718,2.57-1.468,5.629-1.381,8.571q-13.649-7.875-27.294-15.755c-.091-2.906-.31-5.918,1.384-8.453C463.166,191.311,463.2,191.264,463.235,191.216Z" transform="translate(-461.689 -189.832)" fill="#733b36" fill-rule="evenodd"/>
                <path id="Trazado_36277" data-name="Trazado 36277" d="M464.577,190.241c7.484,4.3,19.449,11.374,26.994,15.89a8.6,8.6,0,0,0-1.193,1.272A8.9,8.9,0,0,0,489,211.7a56.54,56.54,0,0,0-5.3-3.3c-7.522-4.329-15.818-9.355-21.9-13.129a8.409,8.409,0,0,1,1.289-3.5,7.177,7.177,0,0,1,1.2-1.272C464.336,190.448,464.522,190.288,464.577,190.241Z" transform="translate(-461.642 -190.241)" fill="#733b36" fill-rule="evenodd"/>
                <path id="Trazado_36278" data-name="Trazado 36278" d="M463.233,191.085c8.983,5.213,22.438,13.167,27.076,15.917l-.034.047a7.836,7.836,0,0,0-1.058,2.372l-.064-.038c-5.766-3.285-18.569-10.854-27.109-16a7.73,7.73,0,0,1,.94-1.971A3.92,3.92,0,0,1,463.233,191.085Z" transform="translate(-461.539 -189.887)" fill="#733b36" fill-rule="evenodd"/>
              </g>
              <g id="Grupo_11937" data-name="Grupo 11937" transform="translate(0 7.969)">
                <path id="Trazado_36279" data-name="Trazado 36279" d="M467.01,198.641c8.635,5,20.108,11.653,27.2,15.755-2.566,3.185-12.582,7.465-19.191,10.055l-27.071-15.724C454.641,206.1,464.629,201.8,467.01,198.641Z" transform="translate(-447.948 -194.684)" fill="#733b36" fill-rule="evenodd"/>
                <path id="Trazado_36280" data-name="Trazado 36280" d="M462.469,195.854c8.334,4.817,19.945,11.493,27.292,15.727.014.86.055,1.722.072,2.571.02.971-1.089,2.132-2.857,3.361-5.956-3.412-17.96-10.251-27.14-15.741,1.68-1.191,2.726-2.313,2.707-3.257C462.526,197.636,462.482,196.744,462.469,195.854Z" transform="translate(-442.957 -195.854)" fill="#733b36" fill-rule="evenodd"/>
                <path id="Trazado_36281" data-name="Trazado 36281" d="M462.3,201.139c9.39,5.392,21.61,12.071,27.6,15.457a118.965,118.965,0,0,1-14.888,6.806l-27.071-15.724A120.821,120.821,0,0,0,462.3,201.139Z" transform="translate(-447.948 -193.636)" fill="#733b36" fill-rule="evenodd"/>
                <path id="Trazado_36282" data-name="Trazado 36282" d="M459.6,202.154c9.457,5.422,21.782,12.159,27.626,15.468-3.9,1.988-8.57,3.927-12.211,5.354l-27.071-15.724C451.452,205.875,455.859,204.042,459.6,202.154Z" transform="translate(-447.948 -193.21)" fill="#733b36" fill-rule="evenodd"/>
                <path id="Trazado_36283" data-name="Trazado 36283" d="M457.213,202.971c9.754,5.2,22.456,11.96,28.214,15.2-3.474,1.668-7.315,3.25-10.408,4.462l-27.071-15.724C450.729,205.818,454.077,204.438,457.213,202.971Z" transform="translate(-447.948 -192.867)" fill="#733b36" fill-rule="evenodd"/>
              </g>
            </g>
          </g>
          <g id="Grupo_11950" data-name="Grupo 11950">
            <g id="Grupo_11940" data-name="Grupo 11940" transform="translate(25.814 50.972)">
              <path id="Trazado_36284" data-name="Trazado 36284" d="M411.344,238.962c-11,10.241-13.593,27.171-12.84,39.214,8.966,11.943,29.967,23.777,49.511,20.648,5.272-.843,12.954-5,17.75-8.311.474-23.761-8.785-40.649-7.163-49.969.7-4.036,1.7-14.555,4.775-17.526,21.076-4.235,12.064-18.271,14-28.96-6.226-12.59-27.353-28.012-38.213-31.492-20.464-6.556-21.738,13.414-19.931,25.669,1.589,10.783,7.2,21.066,3.85,34.313C420.868,231.29,416.386,232.809,411.344,238.962Z" transform="translate(-398.338 -158.204)" fill="#730220" fill-rule="evenodd"/>
              <path id="Trazado_36285" data-name="Trazado 36285" d="M405.678,246.8c-6.008,10.09-7.946,22.676-7.161,32.285a51.784,51.784,0,0,0,14.172,12.436c-.3-32.987,19.035-45.245,20.771-63.059,1.5-15.353-14.658-55.107,3.246-59.9,4.724,8.428,13.2,13.9,26.49,12.583,4.124,2.9,9.872,8.92,11.433,10.583-1.584-7.971-21.214-23-27.164-25.2-4.275-1.584-11.687-6.064-11.993-6.162-20.466-6.556-18.925,14.154-17.118,26.41,2.226,15.1,7.458,23.124,4.332,33.18C419.772,229.323,411.993,236.194,405.678,246.8Z" transform="translate(-398.351 -159.112)" fill="#730220" fill-rule="evenodd"/>
              <path id="Trazado_36286" data-name="Trazado 36286" d="M462.616,185.132c-11.572,6.152-8.262,20.446-5.323,29.713-3.974,7.095-6.1,17.886-6.275,23.839-.23,8.034,7.594,27.569,7.528,48.09-11.452,8.621-35.021,8-45.628,1.327,2.043-28.549,11.093-41.131,17.489-56.25,8.891-21.018-12.579-53.326-.687-63.089,3.842,10.316,17.365,11.53,26.138,10.164C457.405,179.634,460.854,182.982,462.616,185.132Z" transform="translate(-392.237 -155.061)" fill="#730220" fill-rule="evenodd"/>
            </g>
            <g id="Grupo_11944" data-name="Grupo 11944" transform="translate(0 74.546)">
              <path id="Trazado_36287" data-name="Trazado 36287" d="M383.486,176.277c-.794-.327-1.257-.439-1.675-.268a3.465,3.465,0,0,0-1.454,1.846,4.121,4.121,0,0,0,.3,3.021c1.387,4.415,2.994,8.818,4.482,13.214,2.468,7.329,5.473,16.767,7.665,26.244.794,3.65,1.475,7.063,2.026,10.743,1.136,7.593,1.755,15.6.136,22.966A57.786,57.786,0,0,1,391,266.085c-1.15,2.7-2.431,6.267-.892,8.726,1.3,2.069,4.9,4.356,6.4,5.4,13.3,9.206,37.524,23.389,52.08,30.255a23.182,23.182,0,0,0,5.851,2.09,8.943,8.943,0,0,0,3.5-.277,13.687,13.687,0,0,0,3.331-1.427c.169-.088.332-.177.5-.271l0-.01.016-.008-.016.008.006-.014.02-.006c-.01,0-.016.006-.02.006l.01-.016.01,0-.01,0a.024.024,0,0,0,.01-.018h0c-9.1,5.172-9.089-2.375-5.573-10.739,11.875-28.253-13.519-86.543-11.663-87.483,0-.352-6.246-4.743-6.948-5.215C426.919,199.894,395.356,181.159,383.486,176.277Z" transform="translate(-380.169 -175.627)" fill="#f2f2fc" fill-rule="evenodd"/>
              <path id="Trazado_36288" data-name="Trazado 36288" d="M386.856,242.431a6.1,6.1,0,0,0,.527,4.465c1.3,2.069,4.9,4.356,6.4,5.4,13.107,9.071,38.043,23.633,52.08,30.255a23.182,23.182,0,0,0,5.851,2.09,8.943,8.943,0,0,0,3.5-.277,13.186,13.186,0,0,0,2.566-1.005l-.055-.031c-1.687.822-4.381,1.628-6.291.8-1.9-.95-2.174-3.366-1.858-5.5l-12.082-6.975Q412.171,257.026,386.856,242.431Z" transform="translate(-377.439 -147.712)" fill="#d6d6e8" fill-rule="evenodd"/>
              <path id="Trazado_36289" data-name="Trazado 36289" d="M446.3,212.791a1.843,1.843,0,0,0-.1-.271c-.532-1.194-3.833-3.439-4.99-4.265-13.528-9.3-37.9-23.761-53.451-30.927-2.683-1.235-5.947-3.185-7.406.615a2.983,2.983,0,0,0-.038,1.969l8.246,4.759q27.424,15.823,54.843,31.659a23.047,23.047,0,0,0,2.859-3.345Z" transform="translate(-380.169 -175.717)" fill="#f9f9fe" fill-rule="evenodd"/>
              <path id="Trazado_36290" data-name="Trazado 36290" d="M446.547,293.79q-1.3.816-2.642,1.658c-.182.118-.371.236-.628.395-3.622,2.108-5.445,1.7-5.987.8-.5-1.031.016-2.783.855-4.442a65.158,65.158,0,0,0,5.262-19.1c1.565-20.731-7.428-46.851-12.835-62.523-1.184-3.382-2.154-6.336-2.8-8.484a1.361,1.361,0,0,0-2.025-.552,3.161,3.161,0,0,0-1.354,3.642c.656,2.2,1.692,5.138,2.852,8.57,5.277,15.291,14.162,41,12.676,60.989a47.831,47.831,0,0,1-4.76,16.519c-1.911,3.859-2.076,7.039-1.029,8.94,1.264,2.32,4.556,2.3,9.176-.345.253-.163.508-.322.761-.48q2.234-1.4,4.364-2.742Z" transform="translate(-361.661 -164.968)" fill="#e8e8f7" fill-rule="evenodd"/>
              <g id="Grupo_11943" data-name="Grupo 11943" transform="translate(73.796 83.839)">
                <g id="Grupo_11941" data-name="Grupo 11941" transform="translate(0 1.332)">
                  <path id="Trazado_36291" data-name="Trazado 36291" d="M476.7,300.639l-2.784-1.614a14.922,14.922,0,0,1-1.2,5.523,17.181,17.181,0,0,1-6.687,8.135l2.784,1.619a14.581,14.581,0,0,0,4.275-3.8,19.845,19.845,0,0,0,2.6-4.484A13.586,13.586,0,0,0,476.7,300.639Z" transform="translate(-417.926 -209.127)" fill="#5e627d" fill-rule="evenodd"/>
                  <path id="Trazado_36292" data-name="Trazado 36292" d="M479.249,308.645l-44.728,25.9,2.732,1.579,44.779-25.855Z" transform="translate(-431.15 -205.088)" fill="#5e627d" fill-rule="evenodd"/>
                  <path id="Trazado_36293" data-name="Trazado 36293" d="M473.862,259.285l-2.784-1.619.714,58.72L474.576,318Z" transform="translate(-415.805 -226.487)" fill="#5e627d" fill-rule="evenodd"/>
                  <path id="Trazado_36294" data-name="Trazado 36294" d="M477.8,263.583a35.591,35.591,0,0,0-.47-4.052,28.751,28.751,0,0,0-5.832-13.492,20.671,20.671,0,0,0-5.929-5.182l-2.783-1.614c6.135,3.564,10,9.961,11.342,18.762a32.926,32.926,0,0,1,.425,3.958c.024.845.01,3.308.01,3.436l2.784,1.619A33.268,33.268,0,0,0,477.8,263.583Z" transform="translate(-419.287 -234.221)" fill="#5e627d" fill-rule="evenodd"/>
                  <path id="Trazado_36295" data-name="Trazado 36295" d="M479.428,240.644v0c-6.717-3.907-10.813-5.4-18.825-4.819-8.587.618-17.236,4.1-24.309,8.2q-2.074,1.193-4.147,2.556l2.783,1.62q2.074-1.363,4.147-2.563a76.624,76.624,0,0,1,8.362-4.156,52.878,52.878,0,0,1,14.111-3.8,33.91,33.91,0,0,1,9.7.162,24.246,24.246,0,0,1,7.269,2.306C478.822,240.309,479.133,240.467,479.428,240.644Z" transform="translate(-432.147 -235.706)" fill="#5e627d" fill-rule="evenodd"/>
                  <path id="Trazado_36296" data-name="Trazado 36296" d="M490.784,268.252c0-.2.054-3.944-.016-5.2-.064-1.154-.345-2.98-.592-4.393-1.708-9.772-6.525-16.564-14.108-19.765-9.911-4.184-23.8-1.824-37.814,6.264q-2.072,1.2-4.147,2.563l.105,1.545c1.346-.889,2.7-1.722,4.052-2.5,13.687-7.9,27.231-10.2,36.887-6.121,7.557,3.194,12.281,10.066,13.8,19.986a33.864,33.864,0,0,1,.424,3.96c.024.843.01,3.307.01,3.434l.714,58.716a14.594,14.594,0,0,1-1.161,5.441,17.167,17.167,0,0,1-6.727,8.222l-44.779,25.855,0,1.609,44.779-25.854c5.134-2.967,9.3-10.184,9.284-16.082Z" transform="translate(-431.324 -235.222)" fill="#1f202b" fill-rule="evenodd"/>
                  <path id="Trazado_36297" data-name="Trazado 36297" d="M434.931,244.986l-2.784-1.62.1,1.551,2.784,1.614Z" transform="translate(-432.147 -232.49)" fill="#5e627d" fill-rule="evenodd"/>
                </g>
                <g id="Grupo_11942" data-name="Grupo 11942" transform="translate(15.739)">
                  <path id="Trazado_36298" data-name="Trazado 36298" d="M467,241.852l-5.495-2.937a21.707,21.707,0,0,1,9.072,10.528l5.218,3.037C473.792,247.79,470.971,244.158,467,241.852Z" transform="translate(-435.561 -233.027)" fill="#d6d6e8" fill-rule="evenodd"/>
                  <path id="Trazado_36299" data-name="Trazado 36299" d="M443.551,236.395l-.319,1.666,3.714,1.992-.238,1.3,1.61.694.662-2.662Z" transform="translate(-443.232 -234.085)" fill="#d6d6e8" fill-rule="evenodd"/>
                  <path id="Trazado_36300" data-name="Trazado 36300" d="M466.608,238.542c3.173.423,6.4.948,9.184,2.588h0c-3.334-1.939-6.528-4.073-10.242-5.186a28.518,28.518,0,0,0-8.46-1.173,42.657,42.657,0,0,0-11.822,1.768c-.6.169-1.2.346-1.81.54l5.222,3.034A45.357,45.357,0,0,1,466.608,238.542Z" transform="translate(-443.138 -234.768)" fill="#f9f9fe" fill-rule="evenodd"/>
                  <path id="Trazado_36301" data-name="Trazado 36301" d="M447.269,239.217l-.454,2.617c16.669-5.316,29.808-1.021,35.149,11.492l1.949-2.009C478.321,238.206,464.619,233.68,447.269,239.217Z" transform="translate(-441.729 -233.873)" fill="#e8e8f7" fill-rule="evenodd"/>
                </g>
              </g>
            </g>
            <g id="Grupo_11949" data-name="Grupo 11949" transform="translate(8.665)">
              <g id="Grupo_11945" data-name="Grupo 11945" transform="translate(58.285 28.297)">
                <path id="Trazado_36302" data-name="Trazado 36302" d="M427.353,170.61c-.718,2,12.68,15.509,19.441,13.168,3.185-7.871,6.05-14.8,11.773-21.644l-16.452-11.378-4.171-3.342C436.884,158.186,433.942,162.774,427.353,170.61Z" transform="translate(-427.325 -141.348)" fill="#e8a476" fill-rule="evenodd"/>
                <path id="Trazado_36303" data-name="Trazado 36303" d="M454,168.117c-2.4,4.528-5.517,9.947-8.954,16.388.521-7.582,1.157-13.748-12.524-22.561.417-1.9,3.349-7.492,3.879-8.479C450.094,127.947,448.512,156.319,454,168.117Z" transform="translate(-425.145 -143.141)" fill="#db9669" fill-rule="evenodd"/>
              </g>
              <g id="Grupo_11946" data-name="Grupo 11946" transform="translate(62.865 1.982)">
                <path id="Trazado_36304" data-name="Trazado 36304" d="M459.93,175.038c-.98.559-6.843-2.949-8.741-5.3-2.347-3.494-10.715-6.69-15.732-10.611-1.543-4.124-2.773-5.293-3.89-10.219a26.015,26.015,0,0,1-.808-9.911C436.683,133.744,450.581,153.431,459.93,175.038Z" transform="translate(-430.551 -118.927)" fill="#db9669" fill-rule="evenodd"/>
                <path id="Trazado_36305" data-name="Trazado 36305" d="M459.8,180.745c-1.885.169-8.338-9.125-9.163-9.512-5.881-2.761-12.74-5.864-16.035-8.547a35.08,35.08,0,0,1-3.583-10.711,21.428,21.428,0,0,1-.263-7.3c1.458-8.95,6.505-17.237,16.6-19.506,17.56-3.947,32.44,13.694,28.918,26.859-1.447,5.4-3.8,5.71-5.28,9.052a25.037,25.037,0,0,0-.514,4.905c0,.978-2.682,3.8-5.135,7.831C463.24,177.286,461.052,180.632,459.8,180.745Z" transform="translate(-430.551 -124.606)" fill="#e8a476" fill-rule="evenodd"/>
                <path id="Trazado_36306" data-name="Trazado 36306" d="M451.893,174.912c-.483.043-1.262-.531-2.169-1.417-.515-1.854-.426-4.972.24-6.243,2.624-5.022,7.2-7.912,8.181-9.982,2.08-4.376-.42-2.9,3.522-6.815,1.989-1.972,1.778-3.265,2.093-4.851.568-2.862,4.706-7.1,4.709-7.1a12.068,12.068,0,0,1,.417,3.324,15.72,15.72,0,0,1-.515,4.371c-1.447,5.4-3.8,5.71-5.28,9.052a25.037,25.037,0,0,0-.514,4.905c0,.978-2.682,3.8-5.135,7.831C455.331,171.454,453.143,174.8,451.893,174.912Z" transform="translate(-422.642 -118.774)" fill="#f1b287" fill-rule="evenodd"/>
              </g>
              <path id="Trazado_36307" data-name="Trazado 36307" d="M431.515,160.067c-.751,4.441,11.673,11.245,19.255,11.247l.4-.8c.883.875,2.722,5.733,2.462,7.881-7.866,4.194-26.131-4.1-26.788-11.727C426.562,163.453,427.661,161.19,431.515,160.067Z" transform="translate(-369.261 -107.739)" fill="#841235" fill-rule="evenodd"/>
              <g id="Grupo_11947" data-name="Grupo 11947" transform="translate(82.114 40.386)">
                <path id="Trazado_36308" data-name="Trazado 36308" d="M450.553,154.549c1.672-1.634,1.417-2.646.442-2.852-1.071-.227-3.092.49-4.792,2.2-2.739,2.759-3.125,7.728.86,7.64C448.49,160.853,448.77,157.5,450.553,154.549Z" transform="translate(-444.109 -151.656)" fill="#e8a476" fill-rule="evenodd"/>
                <path id="Trazado_36309" data-name="Trazado 36309" d="M450.553,154.549c1.672-1.634,1.417-2.646.442-2.852-1.071-.227-3.092.49-4.792,2.2-2.739,2.759-3.125,7.728.86,7.64-2.825-1.168-.967-4.359.843-6C449.138,154.415,450.48,153.849,450.553,154.549Z" transform="translate(-444.109 -151.656)" fill="#f1b287" fill-rule="evenodd"/>
                <path id="Trazado_36310" data-name="Trazado 36310" d="M448.064,153.9c.078,1.8-.067,2.781-.552,3.155-.336.258-1.055.392-1.516-.866A5.5,5.5,0,0,1,448.064,153.9Z" transform="translate(-443.317 -150.716)" fill="#db9669" fill-rule="evenodd"/>
              </g>
              <g id="Grupo_11948" data-name="Grupo 11948">
                <path id="Trazado_36311" data-name="Trazado 36311" d="M420.405,178c-14.446-4.545-17.9-6.423-27.688-16.665,6.67,12.849,14.625,16.85,26.494,21.586-20.667-4.813-30.044-20.775-32.433-37.8C390.741,161.807,400.89,170.994,420.405,178Z" transform="translate(-386.061 -114.015)" fill="#f0c478" fill-rule="evenodd"/>
                <path id="Trazado_36312" data-name="Trazado 36312" d="M477,170.584c-5.317,6.527-11.71,13.313-19.4,18.331-11.658,7.609-28.206,11.3-41.582,6.583-22.057-7.77-37.541-34.9-25.6-63.341-3.267,17.395,17.641,34.723,30.4,31.691,7.525-1.787,13.8-10.607,20.068-19.966,4.053-6.052,9.595-13.5,16.307-17.581,6.432-3.91,15.8-4,23.43-.89,11.47,4.677,16.075,13.153,15.677,21.122C495.728,158.092,482.6,163.709,477,170.584Z" transform="translate(-386.273 -123.21)" fill="#361d07" fill-rule="evenodd"/>
                <path id="Trazado_36313" data-name="Trazado 36313" d="M387.887,138.439c-3.194,19.59,10.256,42.423,41.094,48.377-9.231.329-27.034-7.856-36.472-21.108,8.777,14.683,23.385,22.33,34.551,23.379-19.472.453-37.608-20.517-40.554-37.859,2.75,23.558,23.889,43.242,47.742,39.658a54.8,54.8,0,0,0,23.257-8.364c7.688-5.017,14.081-11.8,19.4-18.331,5.6-6.876,18.727-12.492,19.3-24.052.006-.1.008-.2.013-.305-2.55,4.671-6.522,7.54-10.64,10.254-9.39,4.623-25.12,24.839-38.206,30.707C423.4,191.547,384.271,171.04,387.887,138.439Z" transform="translate(-386.175 -116.818)" fill="#241304" fill-rule="evenodd"/>
                <path id="Trazado_36314" data-name="Trazado 36314" d="M493.911,143.038c-18.119,9.268-35.765,36.477-55.768,40.646-27.55,5.744-57.614-21.678-48.677-52.862-2.274,9.582,5.882,21.353,15.845,27.088,19.8,11.4,30.408-12.642,40.232-24.15a95.188,95.188,0,0,1-19.919,26.447c5.825-2.179,13.33-11.957,17.229-16.9,4.347-5.51,8.857-11.124,11.615-13.06-2.754,3.389-6.16,9.025-10.008,14.492-8.93,12.688-19.9,27.042-37.044,19.082-7.295-3.388-12.927-8.015-15.485-14.185,2.95,11.673,13.344,21.071,25.544,21.447,15.812.488,30.266-17.44,41.135-36.387-6.447,16.746-15.271,31.943-31.26,38.4,19.611-.8,31.925-22.466,48.316-33.986-13.425,18.015-31.113,34.211-43.128,37.644C451.631,177.23,474.207,148.492,493.911,143.038Z" transform="translate(-385.606 -120.256)" fill="#4a2b12" fill-rule="evenodd"/>
                <path id="Trazado_36315" data-name="Trazado 36315" d="M485.306,148.368c-15.221,7.787-24.822,22.295-39.315,29.3a37.673,37.673,0,0,1-8.753,3.349c-15.234,3.176-30.511-3.578-39.917-15.24a38.527,38.527,0,0,1-8.554-28.333c1.048,9.962,7.665,16.481,15.935,21.24,19.8,11.4,32.334-14.307,40.527-24.927-4.088,7.319-10.807,17.388-18.531,23.953-3.2,2.722-8.591,5.31-16.863,4.309a19.056,19.056,0,0,0,18.795-2.343c6.494-4.653,11.534-12.287,14.056-15.481,4.347-5.51,8.709-12.013,11.467-13.949-2.754,3.389-6.645,9.1-10.6,14.492-8.338,11.355-18.86,25.561-36.007,17.6-7.295-3.388-15.37-11.345-17.929-17.517,1.768,17.937,14.3,26.887,27.543,27.3,8,.246,16.161-4.255,23.067-11.162,6.745-6.747,9.3-10.753,14.883-20.487-4.383,9.85-6.7,13.043-12.957,20.267-4.427,5.113-14.97,15.68-31.187,12.136,14.159,5.1,30.237-2.365,36.261-7,9.74-7.485,18.886-19.651,28.123-26.768-8.74,8.53-16.456,18.431-24.518,25.422-7.482,6.488-23.489,15.826-37.492,10.963,4.653,3.16,12.7,4.2,18.519,3.718C454.136,177.387,466.248,157.171,485.306,148.368Z" transform="translate(-385.293 -120.256)" fill="#7d512d" fill-rule="evenodd"/>
                <path id="Trazado_36316" data-name="Trazado 36316" d="M493.945,144.613c-19.031,3.373-30.336,19.456-48.5,28.735,16.209-10.158,32.762-38.7,40.939-36.139-18.074-7.966-30.406,28.29-53.386,35.781,26.445-14.225,20.374-42.1,41.583-44.387-15.2-1.163-22.817,15.089-25.945,19.435-5.678,7.892-12.558,16.7-20.171,21.292a22.727,22.727,0,0,1-15.2,2.685c-6.953-1.107-15.139-4.819-21.357-15.17,12.761,15.511,25.383,16.474,34.943,10.317,16.059-10.342,23.892-39.073,41.924-41.583-20.395-1.295-28.273,23.212-38.8,32.185,9.69-10.254,13.711-20.6,19.228-26.711a26.014,26.014,0,0,1,6-4.921,24.863,24.863,0,0,1,13.929-2.838C481.068,124.11,493.1,131.763,493.945,144.613Z" transform="translate(-383.907 -123.205)" fill="#241304" fill-rule="evenodd"/>
              </g>
            </g>
          </g>
          <g id="Grupo_11951" data-name="Grupo 11951" transform="translate(88.776 83.86)">
            <path id="Trazado_36317" data-name="Trazado 36317" d="M480.673,212.159c8.314-4.431,6.926-2.962,11.571-6.928,2.845-2.429,11.52-9.2,7.234-12.671-1.072-.87-.988-.429-5.476.25s-7.662,1.08-9.85,2.766c-1.539,1.184-5.557,8.351-10,10.112Z" transform="translate(-429.496 -178.164)" fill="#e8a476" fill-rule="evenodd"/>
            <path id="Trazado_36318" data-name="Trazado 36318" d="M479.517,211.976c8.314-4.431,6.884-3.011,11.571-6.928,2.841-2.375,11.6-8.993,7.316-12.537.356,1.11,1.21,3.491-2.448,5.4a93.437,93.437,0,0,0-9.894,6.267c-.351.237-9.148,5.719-9.16,5.722Z" transform="translate(-428.34 -177.981)" fill="#db9669" fill-rule="evenodd"/>
            <path id="Trazado_36319" data-name="Trazado 36319" d="M461.112,188.909c2.142,8.764-1.621,24.732-2.813,40.175l-13.448,7.776c-1.851-1.448-2.057-2.769-1.952-8.185.214-10.944,1.127-35.457,3.29-40.632a9.806,9.806,0,0,1,7.931-5.734C458.083,182.107,460.252,185.4,461.112,188.909Z" transform="translate(-442.623 -182.267)" fill="#730220" fill-rule="evenodd"/>
            <path id="Trazado_36320" data-name="Trazado 36320" d="M449.16,216.275l40.277-16.956c4.4-.143,7.024,8.186,4.552,10.851l-28.164,15.169c-3.556,1.9-9.617,5.827-13.434,6.359-3.341.466-5.956-.253-7.512-1.712C440.153,225.553,445.112,219.128,449.16,216.275Z" transform="translate(-442.591 -175.124)" fill="#730220" fill-rule="evenodd"/>
            <path id="Trazado_36321" data-name="Trazado 36321" d="M452.645,238.8c-3.689.626-6.622-.555-7.718-1.927-1.851-1.448-1.944-2.767-1.952-8.185-.01-6.236-.662-18.1.07-27.864.395-5.27.738-9.737,2.851-12.8a16.615,16.615,0,0,1,3.345-3.691,8.246,8.246,0,0,1,6.054-2c-7.708,12.921-6.6,35.386-6.064,49.6C449.276,233.12,450.136,237.311,452.645,238.8Z" transform="translate(-442.698 -182.277)" fill="#841235" fill-rule="evenodd"/>
            <path id="Trazado_36322" data-name="Trazado 36322" d="M487.465,200.642c1.67-1.425,6.93-3.676,8.338-5.611.567-.778.93-1.634-.112-2.415-.755-.566-.264-.264-3.96.294s-8.117.842-9.917,2.228C480.5,195.628,485.828,199.551,487.465,200.642Z" transform="translate(-426.364 -178.064)" fill="#f1b287" fill-rule="evenodd"/>
          </g>
        </g>
      </g>
    </g>
  </g>
</svg>
