<svg xmlns="http://www.w3.org/2000/svg" width="336.522" height="303.258" viewBox="0 0 336.522 303.258">
  <g id="Grupo_11902" data-name="Grupo 11902" transform="translate(-1571.333 -40.742)" opacity="0.48">
    <g id="Grupo_11874" data-name="Grupo 11874" transform="translate(1677.835 62.403)" opacity="0.48">
      <g id="Grupo_11872" data-name="Grupo 11872" transform="translate(0 0)">
        <g id="Grupo_11868" data-name="Grupo 11868" transform="translate(38.501 36.617)">
          <g id="Grupo_11867" data-name="Grupo 11867" transform="translate(0)">
            <g id="Grupo_11866" data-name="Grupo 11866">
              <path id="Trazado_36113" data-name="Trazado 36113" d="M193.083,883.172c-1.2,1.248-.184,4.159,2.255,6.5l.041.03c.151.145.3.29.457.419L273.965,960.8,200.14,885.648c-.151-.166-.308-.326-.474-.485C197.226,882.822,194.277,881.929,193.083,883.172Zm10.361,9.944c-.714.743-3-.29-5.105-2.312s-3.239-4.267-2.525-5.011,3,.3,5.106,2.323S204.154,892.377,203.444,893.116Z" transform="translate(-192.579 -882.611)" fill="#fff"/>
            </g>
          </g>
        </g>
        <g id="Grupo_11871" data-name="Grupo 11871" transform="translate(0)">
          <g id="Grupo_11870" data-name="Grupo 11870">
            <g id="Grupo_11869" data-name="Grupo 11869">
              <path id="Trazado_36114" data-name="Trazado 36114" d="M132.655,873.356s.464.881,1.5,2.428a42.775,42.775,0,0,0,5.094,6.222,31.118,31.118,0,0,0,4.377,3.681,22.236,22.236,0,0,0,5.988,2.97,17.5,17.5,0,0,0,7.49.65,19.978,19.978,0,0,0,3.976-.961,25.865,25.865,0,0,0,3.91-1.8,29.677,29.677,0,0,0,7.206-5.593,30.312,30.312,0,0,0,5.447-8.078,38.055,38.055,0,0,0,2.932-20.663,44.046,44.046,0,0,0-5.256-15.925l-.174-.313-.179-.3-.374-.621c-.253-.391-.5-.782-.784-1.165a20.854,20.854,0,0,0-1.793-2.19,16,16,0,0,0-4.486-3.366,11.83,11.83,0,0,0-5.387-1.271,9.41,9.41,0,0,0-5.2,1.6,8.382,8.382,0,0,0-3.228,4.305,10.954,10.954,0,0,0-.266,5.509,18.4,18.4,0,0,0,2.014,5.323q.707,1.256,1.541,2.44c.285.384.566.793.86,1.151.157.2.3.351.45.526s.317.341.487.5a19.407,19.407,0,0,0,4.639,3.24,45.258,45.258,0,0,0,10.8,3.7,86.666,86.666,0,0,0,11.126,1.679,130.134,130.134,0,0,0,21.353.044,116.632,116.632,0,0,0,18.907-3.016,71.5,71.5,0,0,0,15.184-5.5,30.97,30.97,0,0,0,9.846-7.5,16.407,16.407,0,0,0,3.534-7.118,15.657,15.657,0,0,0,.282-2.1c.019-.481.029-.729.029-.729s0,.249-.008.73a15.7,15.7,0,0,1-.223,2.117,16.274,16.274,0,0,1-3.386,7.286,31.38,31.38,0,0,1-9.811,7.81,68.34,68.34,0,0,1-15.236,5.824,117.671,117.671,0,0,1-19.024,3.29,121.847,121.847,0,0,1-21.56.159,88.005,88.005,0,0,1-11.3-1.658A46.594,46.594,0,0,1,162.8,852.9a20.767,20.767,0,0,1-4.992-3.464c-.188-.177-.363-.369-.544-.556s-.369-.408-.513-.595c-.332-.4-.612-.808-.917-1.216-.584-.825-1.132-1.68-1.636-2.565A19.837,19.837,0,0,1,152,838.753a12.311,12.311,0,0,1,.3-6.262,9.871,9.871,0,0,1,3.816-5.043,10.861,10.861,0,0,1,6.01-1.829,13.261,13.261,0,0,1,6.032,1.442,17.4,17.4,0,0,1,4.872,3.682,22.194,22.194,0,0,1,1.9,2.344c.293.4.566.833.838,1.259l.374.628.191.325.178.323a45.4,45.4,0,0,1,5.346,16.433,38.453,38.453,0,0,1-3.236,21.287,31.353,31.353,0,0,1-5.737,8.276,30.573,30.573,0,0,1-7.5,5.667,22.2,22.2,0,0,1-8.2,2.734,18.133,18.133,0,0,1-7.745-.835,22.691,22.691,0,0,1-6.055-3.162,31.531,31.531,0,0,1-4.347-3.814,40.948,40.948,0,0,1-4.954-6.38C133.093,874.25,132.655,873.356,132.655,873.356Z" transform="translate(-132.655 -825.618)" fill="#fff"/>
            </g>
          </g>
        </g>
      </g>
      <g id="Grupo_11873" data-name="Grupo 11873" transform="translate(0 128.163)">
        <g id="Grupo_11868-2" data-name="Grupo 11868" transform="translate(38.501 36.617)">
          <g id="Grupo_11867-2" data-name="Grupo 11867" transform="translate(0)">
            <g id="Grupo_11866-2" data-name="Grupo 11866">
              <path id="Trazado_36113-2" data-name="Trazado 36113" d="M193.083,883.172c-1.2,1.248-.184,4.159,2.255,6.5l.041.03c.151.145.3.29.457.419L273.965,960.8,200.14,885.648c-.151-.166-.308-.326-.474-.485C197.226,882.822,194.277,881.929,193.083,883.172Zm10.361,9.944c-.714.743-3-.29-5.105-2.312s-3.239-4.267-2.525-5.011,3,.3,5.106,2.323S204.154,892.377,203.444,893.116Z" transform="translate(-192.579 -882.611)" fill="#fff"/>
            </g>
          </g>
        </g>
        <g id="Grupo_11871-2" data-name="Grupo 11871" transform="translate(0)">
          <g id="Grupo_11870-2" data-name="Grupo 11870">
            <g id="Grupo_11869-2" data-name="Grupo 11869">
              <path id="Trazado_36114-2" data-name="Trazado 36114" d="M132.655,873.356s.464.881,1.5,2.428a42.775,42.775,0,0,0,5.094,6.222,31.118,31.118,0,0,0,4.377,3.681,22.236,22.236,0,0,0,5.988,2.97,17.5,17.5,0,0,0,7.49.65,19.978,19.978,0,0,0,3.976-.961,25.865,25.865,0,0,0,3.91-1.8,29.677,29.677,0,0,0,7.206-5.593,30.312,30.312,0,0,0,5.447-8.078,38.055,38.055,0,0,0,2.932-20.663,44.046,44.046,0,0,0-5.256-15.925l-.174-.313-.179-.3-.374-.621c-.253-.391-.5-.782-.784-1.165a20.854,20.854,0,0,0-1.793-2.19,16,16,0,0,0-4.486-3.366,11.83,11.83,0,0,0-5.387-1.271,9.41,9.41,0,0,0-5.2,1.6,8.382,8.382,0,0,0-3.228,4.305,10.954,10.954,0,0,0-.266,5.509,18.4,18.4,0,0,0,2.014,5.323q.707,1.256,1.541,2.44c.285.384.566.793.86,1.151.157.2.3.351.45.526s.317.341.487.5a19.407,19.407,0,0,0,4.639,3.24,45.258,45.258,0,0,0,10.8,3.7,86.666,86.666,0,0,0,11.126,1.679,130.134,130.134,0,0,0,21.353.044,116.632,116.632,0,0,0,18.907-3.016,71.5,71.5,0,0,0,15.184-5.5,30.97,30.97,0,0,0,9.846-7.5,16.407,16.407,0,0,0,3.534-7.118,15.657,15.657,0,0,0,.282-2.1c.019-.481.029-.729.029-.729s0,.249-.008.73a15.7,15.7,0,0,1-.223,2.117,16.274,16.274,0,0,1-3.386,7.286,31.38,31.38,0,0,1-9.811,7.81,68.34,68.34,0,0,1-15.236,5.824,117.671,117.671,0,0,1-19.024,3.29,121.847,121.847,0,0,1-21.56.159,88.005,88.005,0,0,1-11.3-1.658A46.594,46.594,0,0,1,162.8,852.9a20.767,20.767,0,0,1-4.992-3.464c-.188-.177-.363-.369-.544-.556s-.369-.408-.513-.595c-.332-.4-.612-.808-.917-1.216-.584-.825-1.132-1.68-1.636-2.565A19.837,19.837,0,0,1,152,838.753a12.311,12.311,0,0,1,.3-6.262,9.871,9.871,0,0,1,3.816-5.043,10.861,10.861,0,0,1,6.01-1.829,13.261,13.261,0,0,1,6.032,1.442,17.4,17.4,0,0,1,4.872,3.682,22.194,22.194,0,0,1,1.9,2.344c.293.4.566.833.838,1.259l.374.628.191.325.178.323a45.4,45.4,0,0,1,5.346,16.433,38.453,38.453,0,0,1-3.236,21.287,31.353,31.353,0,0,1-5.737,8.276,30.573,30.573,0,0,1-7.5,5.667,22.2,22.2,0,0,1-8.2,2.734,18.133,18.133,0,0,1-7.745-.835,22.691,22.691,0,0,1-6.055-3.162,31.531,31.531,0,0,1-4.347-3.814,40.948,40.948,0,0,1-4.954-6.38C133.093,874.25,132.655,873.356,132.655,873.356Z" transform="translate(-132.655 -825.618)" fill="#fff"/>
            </g>
          </g>
        </g>
      </g>
    </g>
    <g id="Grupo_11877" data-name="Grupo 11877" transform="translate(1799.68 40.742)">
      <g id="Grupo_11875" data-name="Grupo 11875" transform="translate(0 0)">
        <g id="Grupo_11872-2" data-name="Grupo 11872" transform="translate(0 0)">
          <g id="Grupo_11868-3" data-name="Grupo 11868" transform="translate(34.181 32.509)">
            <g id="Grupo_11867-3" data-name="Grupo 11867" transform="translate(0)">
              <g id="Grupo_11866-3" data-name="Grupo 11866">
                <path id="Trazado_36113-3" data-name="Trazado 36113" d="M193.026,883.109c-1.063,1.108-.164,3.693,2,5.771l.036.026c.134.128.268.257.406.372l69.364,62.749-65.543-66.72c-.134-.147-.273-.289-.421-.431C196.7,882.8,194.086,882.005,193.026,883.109Zm9.2,8.829c-.634.66-2.662-.258-4.532-2.053s-2.875-3.789-2.242-4.449,2.663.267,4.533,2.062S202.855,891.282,202.225,891.938Z" transform="translate(-192.58 -882.611)" fill="#fff"/>
              </g>
            </g>
          </g>
          <g id="Grupo_11871-3" data-name="Grupo 11871" transform="translate(0 0)">
            <g id="Grupo_11870-3" data-name="Grupo 11870">
              <g id="Grupo_11869-3" data-name="Grupo 11869">
                <path id="Trazado_36114-3" data-name="Trazado 36114" d="M132.655,868s.412.783,1.332,2.156a37.975,37.975,0,0,0,4.523,5.524,27.628,27.628,0,0,0,3.886,3.268,19.741,19.741,0,0,0,5.316,2.637,15.537,15.537,0,0,0,6.65.577,17.732,17.732,0,0,0,3.53-.853,22.962,22.962,0,0,0,3.471-1.6,26.349,26.349,0,0,0,6.4-4.965,26.912,26.912,0,0,0,4.836-7.172,33.785,33.785,0,0,0,2.6-18.345,39.1,39.1,0,0,0-4.667-14.139l-.155-.278-.159-.268-.332-.552c-.224-.347-.447-.694-.7-1.035a18.522,18.522,0,0,0-1.592-1.944,14.2,14.2,0,0,0-3.983-2.988,10.5,10.5,0,0,0-4.782-1.128,8.354,8.354,0,0,0-4.617,1.419,7.442,7.442,0,0,0-2.866,3.822,9.725,9.725,0,0,0-.236,4.891,16.332,16.332,0,0,0,1.788,4.726q.628,1.115,1.368,2.166c.253.341.5.7.764,1.022.139.181.268.311.4.467s.281.3.432.445a17.23,17.23,0,0,0,4.119,2.877,40.18,40.18,0,0,0,9.587,3.289,76.948,76.948,0,0,0,9.878,1.491,115.538,115.538,0,0,0,18.957.039,103.542,103.542,0,0,0,16.786-2.678,63.476,63.476,0,0,0,13.481-4.884,27.5,27.5,0,0,0,8.741-6.657,14.567,14.567,0,0,0,3.137-6.32,13.9,13.9,0,0,0,.25-1.866c.017-.427.026-.647.026-.647s0,.221-.007.648a13.933,13.933,0,0,1-.2,1.88,14.448,14.448,0,0,1-3.006,6.468,27.861,27.861,0,0,1-8.711,6.934,60.673,60.673,0,0,1-13.527,5.171,104.464,104.464,0,0,1-16.89,2.921,108.176,108.176,0,0,1-19.142.141,78.145,78.145,0,0,1-10.036-1.472,41.373,41.373,0,0,1-9.9-3.355,18.436,18.436,0,0,1-4.432-3.075c-.167-.157-.322-.328-.483-.493s-.327-.362-.456-.528c-.295-.358-.544-.717-.814-1.079-.518-.732-1.005-1.492-1.452-2.278a17.61,17.61,0,0,1-1.949-5.1,10.929,10.929,0,0,1,.265-5.56,8.763,8.763,0,0,1,3.388-4.478,9.642,9.642,0,0,1,5.336-1.623,11.772,11.772,0,0,1,5.356,1.28,15.45,15.45,0,0,1,4.325,3.269,19.7,19.7,0,0,1,1.691,2.081c.26.359.5.739.744,1.118l.332.558.17.289.158.287a40.3,40.3,0,0,1,4.746,14.589,34.139,34.139,0,0,1-2.873,18.9,27.836,27.836,0,0,1-5.093,7.347,27.145,27.145,0,0,1-6.658,5.032,19.708,19.708,0,0,1-7.28,2.427,16.1,16.1,0,0,1-6.876-.741,20.145,20.145,0,0,1-5.376-2.807,27.994,27.994,0,0,1-3.859-3.386,36.354,36.354,0,0,1-4.4-5.665C133.044,868.795,132.655,868,132.655,868Z" transform="translate(-132.655 -825.618)" fill="#fff"/>
              </g>
            </g>
          </g>
        </g>
        <g id="Grupo_11873-2" data-name="Grupo 11873" transform="translate(0 99.344)">
          <g id="Grupo_11868-4" data-name="Grupo 11868" transform="translate(34.181 32.509)">
            <g id="Grupo_11867-4" data-name="Grupo 11867" transform="translate(0)">
              <g id="Grupo_11866-4" data-name="Grupo 11866">
                <path id="Trazado_36113-4" data-name="Trazado 36113" d="M193.026,883.109c-1.063,1.108-.164,3.693,2,5.771l.036.026c.134.128.268.257.406.372l69.364,62.749-65.543-66.72c-.134-.147-.273-.289-.421-.431C196.7,882.8,194.086,882.005,193.026,883.109Zm9.2,8.829c-.634.66-2.662-.258-4.532-2.053s-2.875-3.789-2.242-4.449,2.663.267,4.533,2.062S202.855,891.282,202.225,891.938Z" transform="translate(-192.58 -882.611)" fill="#fff"/>
              </g>
            </g>
          </g>
          <g id="Grupo_11871-4" data-name="Grupo 11871" transform="translate(0 0)">
            <g id="Grupo_11870-4" data-name="Grupo 11870">
              <g id="Grupo_11869-4" data-name="Grupo 11869">
                <path id="Trazado_36114-4" data-name="Trazado 36114" d="M132.655,868s.412.783,1.332,2.156a37.975,37.975,0,0,0,4.523,5.524,27.628,27.628,0,0,0,3.886,3.268,19.741,19.741,0,0,0,5.316,2.637,15.537,15.537,0,0,0,6.65.577,17.732,17.732,0,0,0,3.53-.853,22.962,22.962,0,0,0,3.471-1.6,26.349,26.349,0,0,0,6.4-4.965,26.912,26.912,0,0,0,4.836-7.172,33.785,33.785,0,0,0,2.6-18.345,39.1,39.1,0,0,0-4.667-14.139l-.155-.278-.159-.268-.332-.552c-.224-.347-.447-.694-.7-1.035a18.522,18.522,0,0,0-1.592-1.944,14.2,14.2,0,0,0-3.983-2.988,10.5,10.5,0,0,0-4.782-1.128,8.354,8.354,0,0,0-4.617,1.419,7.442,7.442,0,0,0-2.866,3.822,9.725,9.725,0,0,0-.236,4.891,16.332,16.332,0,0,0,1.788,4.726q.628,1.115,1.368,2.166c.253.341.5.7.764,1.022.139.181.268.311.4.467s.281.3.432.445a17.23,17.23,0,0,0,4.119,2.877,40.18,40.18,0,0,0,9.587,3.289,76.948,76.948,0,0,0,9.878,1.491,115.538,115.538,0,0,0,18.957.039,103.542,103.542,0,0,0,16.786-2.678,63.476,63.476,0,0,0,13.481-4.884,27.5,27.5,0,0,0,8.741-6.657,14.567,14.567,0,0,0,3.137-6.32,13.9,13.9,0,0,0,.25-1.866c.017-.427.026-.647.026-.647s0,.221-.007.648a13.933,13.933,0,0,1-.2,1.88,14.448,14.448,0,0,1-3.006,6.468,27.861,27.861,0,0,1-8.711,6.934,60.673,60.673,0,0,1-13.527,5.171,104.464,104.464,0,0,1-16.89,2.921,108.176,108.176,0,0,1-19.142.141,78.145,78.145,0,0,1-10.036-1.472,41.373,41.373,0,0,1-9.9-3.355,18.436,18.436,0,0,1-4.432-3.075c-.167-.157-.322-.328-.483-.493s-.327-.362-.456-.528c-.295-.358-.544-.717-.814-1.079-.518-.732-1.005-1.492-1.452-2.278a17.61,17.61,0,0,1-1.949-5.1,10.929,10.929,0,0,1,.265-5.56,8.763,8.763,0,0,1,3.388-4.478,9.642,9.642,0,0,1,5.336-1.623,11.772,11.772,0,0,1,5.356,1.28,15.45,15.45,0,0,1,4.325,3.269,19.7,19.7,0,0,1,1.691,2.081c.26.359.5.739.744,1.118l.332.558.17.289.158.287a40.3,40.3,0,0,1,4.746,14.589,34.139,34.139,0,0,1-2.873,18.9,27.836,27.836,0,0,1-5.093,7.347,27.145,27.145,0,0,1-6.658,5.032,19.708,19.708,0,0,1-7.28,2.427,16.1,16.1,0,0,1-6.876-.741,20.145,20.145,0,0,1-5.376-2.807,27.994,27.994,0,0,1-3.859-3.386,36.354,36.354,0,0,1-4.4-5.665C133.044,868.795,132.655,868,132.655,868Z" transform="translate(-132.655 -825.618)" fill="#fff"/>
              </g>
            </g>
          </g>
        </g>
        <g id="Grupo_11876" data-name="Grupo 11876" transform="translate(0 201.333)">
          <g id="Grupo_11868-5" data-name="Grupo 11868" transform="translate(34.181 32.509)">
            <g id="Grupo_11867-5" data-name="Grupo 11867" transform="translate(0)">
              <g id="Grupo_11866-5" data-name="Grupo 11866">
                <path id="Trazado_36113-5" data-name="Trazado 36113" d="M193.026,883.109c-1.063,1.108-.164,3.693,2,5.771l.036.026c.134.128.268.257.406.372l69.364,62.749-65.543-66.72c-.134-.147-.273-.289-.421-.431C196.7,882.8,194.086,882.005,193.026,883.109Zm9.2,8.829c-.634.66-2.662-.258-4.532-2.053s-2.875-3.789-2.242-4.449,2.663.267,4.533,2.062S202.855,891.282,202.225,891.938Z" transform="translate(-192.58 -882.611)" fill="#fff"/>
              </g>
            </g>
          </g>
          <g id="Grupo_11871-5" data-name="Grupo 11871" transform="translate(0 0)">
            <g id="Grupo_11870-5" data-name="Grupo 11870">
              <g id="Grupo_11869-5" data-name="Grupo 11869">
                <path id="Trazado_36114-5" data-name="Trazado 36114" d="M132.655,868s.412.783,1.332,2.156a37.975,37.975,0,0,0,4.523,5.524,27.628,27.628,0,0,0,3.886,3.268,19.741,19.741,0,0,0,5.316,2.637,15.537,15.537,0,0,0,6.65.577,17.732,17.732,0,0,0,3.53-.853,22.962,22.962,0,0,0,3.471-1.6,26.349,26.349,0,0,0,6.4-4.965,26.912,26.912,0,0,0,4.836-7.172,33.785,33.785,0,0,0,2.6-18.345,39.1,39.1,0,0,0-4.667-14.139l-.155-.278-.159-.268-.332-.552c-.224-.347-.447-.694-.7-1.035a18.522,18.522,0,0,0-1.592-1.944,14.2,14.2,0,0,0-3.983-2.988,10.5,10.5,0,0,0-4.782-1.128,8.354,8.354,0,0,0-4.617,1.419,7.442,7.442,0,0,0-2.866,3.822,9.725,9.725,0,0,0-.236,4.891,16.332,16.332,0,0,0,1.788,4.726q.628,1.115,1.368,2.166c.253.341.5.7.764,1.022.139.181.268.311.4.467s.281.3.432.445a17.23,17.23,0,0,0,4.119,2.877,40.18,40.18,0,0,0,9.587,3.289,76.948,76.948,0,0,0,9.878,1.491,115.538,115.538,0,0,0,18.957.039,103.542,103.542,0,0,0,16.786-2.678,63.476,63.476,0,0,0,13.481-4.884,27.5,27.5,0,0,0,8.741-6.657,14.567,14.567,0,0,0,3.137-6.32,13.9,13.9,0,0,0,.25-1.866c.017-.427.026-.647.026-.647s0,.221-.007.648a13.933,13.933,0,0,1-.2,1.88,14.448,14.448,0,0,1-3.006,6.468,27.861,27.861,0,0,1-8.711,6.934,60.673,60.673,0,0,1-13.527,5.171,104.464,104.464,0,0,1-16.89,2.921,108.176,108.176,0,0,1-19.142.141,78.145,78.145,0,0,1-10.036-1.472,41.373,41.373,0,0,1-9.9-3.355,18.436,18.436,0,0,1-4.432-3.075c-.167-.157-.322-.328-.483-.493s-.327-.362-.456-.528c-.295-.358-.544-.717-.814-1.079-.518-.732-1.005-1.492-1.452-2.278a17.61,17.61,0,0,1-1.949-5.1,10.929,10.929,0,0,1,.265-5.56,8.763,8.763,0,0,1,3.388-4.478,9.642,9.642,0,0,1,5.336-1.623,11.772,11.772,0,0,1,5.356,1.28,15.45,15.45,0,0,1,4.325,3.269,19.7,19.7,0,0,1,1.691,2.081c.26.359.5.739.744,1.118l.332.558.17.289.158.287a40.3,40.3,0,0,1,4.746,14.589,34.139,34.139,0,0,1-2.873,18.9,27.836,27.836,0,0,1-5.093,7.347,27.145,27.145,0,0,1-6.658,5.032,19.708,19.708,0,0,1-7.28,2.427,16.1,16.1,0,0,1-6.876-.741,20.145,20.145,0,0,1-5.376-2.807,27.994,27.994,0,0,1-3.859-3.386,36.354,36.354,0,0,1-4.4-5.665C133.044,868.795,132.655,868,132.655,868Z" transform="translate(-132.655 -825.618)" fill="#fff"/>
              </g>
            </g>
          </g>
        </g>
      </g>
    </g>
    <g id="Grupo_11878" data-name="Grupo 11878" transform="translate(1571.333 40.742)" opacity="0.39">
      <g id="Grupo_11875-2" data-name="Grupo 11875" transform="translate(0 0)">
        <g id="Grupo_11872-3" data-name="Grupo 11872" transform="translate(0 0)">
          <g id="Grupo_11868-6" data-name="Grupo 11868" transform="translate(34.181 32.509)">
            <g id="Grupo_11867-6" data-name="Grupo 11867" transform="translate(0)">
              <g id="Grupo_11866-6" data-name="Grupo 11866">
                <path id="Trazado_36113-6" data-name="Trazado 36113" d="M193.026,883.109c-1.063,1.108-.164,3.693,2,5.771l.036.026c.134.128.268.257.406.372l69.364,62.749-65.543-66.72c-.134-.147-.273-.289-.421-.431C196.7,882.8,194.086,882.005,193.026,883.109Zm9.2,8.829c-.634.66-2.662-.258-4.532-2.053s-2.875-3.789-2.242-4.449,2.663.267,4.533,2.062S202.855,891.282,202.225,891.938Z" transform="translate(-192.58 -882.611)" fill="#fff"/>
              </g>
            </g>
          </g>
          <g id="Grupo_11871-6" data-name="Grupo 11871" transform="translate(0 0)">
            <g id="Grupo_11870-6" data-name="Grupo 11870">
              <g id="Grupo_11869-6" data-name="Grupo 11869">
                <path id="Trazado_36114-6" data-name="Trazado 36114" d="M132.655,868s.412.783,1.332,2.156a37.975,37.975,0,0,0,4.523,5.524,27.628,27.628,0,0,0,3.886,3.268,19.741,19.741,0,0,0,5.316,2.637,15.537,15.537,0,0,0,6.65.577,17.732,17.732,0,0,0,3.53-.853,22.962,22.962,0,0,0,3.471-1.6,26.349,26.349,0,0,0,6.4-4.965,26.912,26.912,0,0,0,4.836-7.172,33.785,33.785,0,0,0,2.6-18.345,39.1,39.1,0,0,0-4.667-14.139l-.155-.278-.159-.268-.332-.552c-.224-.347-.447-.694-.7-1.035a18.522,18.522,0,0,0-1.592-1.944,14.2,14.2,0,0,0-3.983-2.988,10.5,10.5,0,0,0-4.782-1.128,8.354,8.354,0,0,0-4.617,1.419,7.442,7.442,0,0,0-2.866,3.822,9.725,9.725,0,0,0-.236,4.891,16.332,16.332,0,0,0,1.788,4.726q.628,1.115,1.368,2.166c.253.341.5.7.764,1.022.139.181.268.311.4.467s.281.3.432.445a17.23,17.23,0,0,0,4.119,2.877,40.18,40.18,0,0,0,9.587,3.289,76.948,76.948,0,0,0,9.878,1.491,115.538,115.538,0,0,0,18.957.039,103.542,103.542,0,0,0,16.786-2.678,63.476,63.476,0,0,0,13.481-4.884,27.5,27.5,0,0,0,8.741-6.657,14.567,14.567,0,0,0,3.137-6.32,13.9,13.9,0,0,0,.25-1.866c.017-.427.026-.647.026-.647s0,.221-.007.648a13.933,13.933,0,0,1-.2,1.88,14.448,14.448,0,0,1-3.006,6.468,27.861,27.861,0,0,1-8.711,6.934,60.673,60.673,0,0,1-13.527,5.171,104.464,104.464,0,0,1-16.89,2.921,108.176,108.176,0,0,1-19.142.141,78.145,78.145,0,0,1-10.036-1.472,41.373,41.373,0,0,1-9.9-3.355,18.436,18.436,0,0,1-4.432-3.075c-.167-.157-.322-.328-.483-.493s-.327-.362-.456-.528c-.295-.358-.544-.717-.814-1.079-.518-.732-1.005-1.492-1.452-2.278a17.61,17.61,0,0,1-1.949-5.1,10.929,10.929,0,0,1,.265-5.56,8.763,8.763,0,0,1,3.388-4.478,9.642,9.642,0,0,1,5.336-1.623,11.772,11.772,0,0,1,5.356,1.28,15.45,15.45,0,0,1,4.325,3.269,19.7,19.7,0,0,1,1.691,2.081c.26.359.5.739.744,1.118l.332.558.17.289.158.287a40.3,40.3,0,0,1,4.746,14.589,34.139,34.139,0,0,1-2.873,18.9,27.836,27.836,0,0,1-5.093,7.347,27.145,27.145,0,0,1-6.658,5.032,19.708,19.708,0,0,1-7.28,2.427,16.1,16.1,0,0,1-6.876-.741,20.145,20.145,0,0,1-5.376-2.807,27.994,27.994,0,0,1-3.859-3.386,36.354,36.354,0,0,1-4.4-5.665C133.044,868.795,132.655,868,132.655,868Z" transform="translate(-132.655 -825.618)" fill="#fff"/>
              </g>
            </g>
          </g>
        </g>
        <g id="Grupo_11873-3" data-name="Grupo 11873" transform="translate(0 99.344)">
          <g id="Grupo_11868-7" data-name="Grupo 11868" transform="translate(34.181 32.509)">
            <g id="Grupo_11867-7" data-name="Grupo 11867" transform="translate(0)">
              <g id="Grupo_11866-7" data-name="Grupo 11866">
                <path id="Trazado_36113-7" data-name="Trazado 36113" d="M193.026,883.109c-1.063,1.108-.164,3.693,2,5.771l.036.026c.134.128.268.257.406.372l69.364,62.749-65.543-66.72c-.134-.147-.273-.289-.421-.431C196.7,882.8,194.086,882.005,193.026,883.109Zm9.2,8.829c-.634.66-2.662-.258-4.532-2.053s-2.875-3.789-2.242-4.449,2.663.267,4.533,2.062S202.855,891.282,202.225,891.938Z" transform="translate(-192.58 -882.611)" fill="#fff"/>
              </g>
            </g>
          </g>
          <g id="Grupo_11871-7" data-name="Grupo 11871" transform="translate(0 0)">
            <g id="Grupo_11870-7" data-name="Grupo 11870">
              <g id="Grupo_11869-7" data-name="Grupo 11869">
                <path id="Trazado_36114-7" data-name="Trazado 36114" d="M132.655,868s.412.783,1.332,2.156a37.975,37.975,0,0,0,4.523,5.524,27.628,27.628,0,0,0,3.886,3.268,19.741,19.741,0,0,0,5.316,2.637,15.537,15.537,0,0,0,6.65.577,17.732,17.732,0,0,0,3.53-.853,22.962,22.962,0,0,0,3.471-1.6,26.349,26.349,0,0,0,6.4-4.965,26.912,26.912,0,0,0,4.836-7.172,33.785,33.785,0,0,0,2.6-18.345,39.1,39.1,0,0,0-4.667-14.139l-.155-.278-.159-.268-.332-.552c-.224-.347-.447-.694-.7-1.035a18.522,18.522,0,0,0-1.592-1.944,14.2,14.2,0,0,0-3.983-2.988,10.5,10.5,0,0,0-4.782-1.128,8.354,8.354,0,0,0-4.617,1.419,7.442,7.442,0,0,0-2.866,3.822,9.725,9.725,0,0,0-.236,4.891,16.332,16.332,0,0,0,1.788,4.726q.628,1.115,1.368,2.166c.253.341.5.7.764,1.022.139.181.268.311.4.467s.281.3.432.445a17.23,17.23,0,0,0,4.119,2.877,40.18,40.18,0,0,0,9.587,3.289,76.948,76.948,0,0,0,9.878,1.491,115.538,115.538,0,0,0,18.957.039,103.542,103.542,0,0,0,16.786-2.678,63.476,63.476,0,0,0,13.481-4.884,27.5,27.5,0,0,0,8.741-6.657,14.567,14.567,0,0,0,3.137-6.32,13.9,13.9,0,0,0,.25-1.866c.017-.427.026-.647.026-.647s0,.221-.007.648a13.933,13.933,0,0,1-.2,1.88,14.448,14.448,0,0,1-3.006,6.468,27.861,27.861,0,0,1-8.711,6.934,60.673,60.673,0,0,1-13.527,5.171,104.464,104.464,0,0,1-16.89,2.921,108.176,108.176,0,0,1-19.142.141,78.145,78.145,0,0,1-10.036-1.472,41.373,41.373,0,0,1-9.9-3.355,18.436,18.436,0,0,1-4.432-3.075c-.167-.157-.322-.328-.483-.493s-.327-.362-.456-.528c-.295-.358-.544-.717-.814-1.079-.518-.732-1.005-1.492-1.452-2.278a17.61,17.61,0,0,1-1.949-5.1,10.929,10.929,0,0,1,.265-5.56,8.763,8.763,0,0,1,3.388-4.478,9.642,9.642,0,0,1,5.336-1.623,11.772,11.772,0,0,1,5.356,1.28,15.45,15.45,0,0,1,4.325,3.269,19.7,19.7,0,0,1,1.691,2.081c.26.359.5.739.744,1.118l.332.558.17.289.158.287a40.3,40.3,0,0,1,4.746,14.589,34.139,34.139,0,0,1-2.873,18.9,27.836,27.836,0,0,1-5.093,7.347,27.145,27.145,0,0,1-6.658,5.032,19.708,19.708,0,0,1-7.28,2.427,16.1,16.1,0,0,1-6.876-.741,20.145,20.145,0,0,1-5.376-2.807,27.994,27.994,0,0,1-3.859-3.386,36.354,36.354,0,0,1-4.4-5.665C133.044,868.795,132.655,868,132.655,868Z" transform="translate(-132.655 -825.618)" fill="#fff"/>
              </g>
            </g>
          </g>
        </g>
        <g id="Grupo_11876-2" data-name="Grupo 11876" transform="translate(0 201.333)">
          <g id="Grupo_11868-8" data-name="Grupo 11868" transform="translate(34.181 32.509)">
            <g id="Grupo_11867-8" data-name="Grupo 11867" transform="translate(0)">
              <g id="Grupo_11866-8" data-name="Grupo 11866">
                <path id="Trazado_36113-8" data-name="Trazado 36113" d="M193.026,883.109c-1.063,1.108-.164,3.693,2,5.771l.036.026c.134.128.268.257.406.372l69.364,62.749-65.543-66.72c-.134-.147-.273-.289-.421-.431C196.7,882.8,194.086,882.005,193.026,883.109Zm9.2,8.829c-.634.66-2.662-.258-4.532-2.053s-2.875-3.789-2.242-4.449,2.663.267,4.533,2.062S202.855,891.282,202.225,891.938Z" transform="translate(-192.58 -882.611)" fill="#fff"/>
              </g>
            </g>
          </g>
          <g id="Grupo_11871-8" data-name="Grupo 11871" transform="translate(0 0)">
            <g id="Grupo_11870-8" data-name="Grupo 11870">
              <g id="Grupo_11869-8" data-name="Grupo 11869">
                <path id="Trazado_36114-8" data-name="Trazado 36114" d="M132.655,868s.412.783,1.332,2.156a37.975,37.975,0,0,0,4.523,5.524,27.628,27.628,0,0,0,3.886,3.268,19.741,19.741,0,0,0,5.316,2.637,15.537,15.537,0,0,0,6.65.577,17.732,17.732,0,0,0,3.53-.853,22.962,22.962,0,0,0,3.471-1.6,26.349,26.349,0,0,0,6.4-4.965,26.912,26.912,0,0,0,4.836-7.172,33.785,33.785,0,0,0,2.6-18.345,39.1,39.1,0,0,0-4.667-14.139l-.155-.278-.159-.268-.332-.552c-.224-.347-.447-.694-.7-1.035a18.522,18.522,0,0,0-1.592-1.944,14.2,14.2,0,0,0-3.983-2.988,10.5,10.5,0,0,0-4.782-1.128,8.354,8.354,0,0,0-4.617,1.419,7.442,7.442,0,0,0-2.866,3.822,9.725,9.725,0,0,0-.236,4.891,16.332,16.332,0,0,0,1.788,4.726q.628,1.115,1.368,2.166c.253.341.5.7.764,1.022.139.181.268.311.4.467s.281.3.432.445a17.23,17.23,0,0,0,4.119,2.877,40.18,40.18,0,0,0,9.587,3.289,76.948,76.948,0,0,0,9.878,1.491,115.538,115.538,0,0,0,18.957.039,103.542,103.542,0,0,0,16.786-2.678,63.476,63.476,0,0,0,13.481-4.884,27.5,27.5,0,0,0,8.741-6.657,14.567,14.567,0,0,0,3.137-6.32,13.9,13.9,0,0,0,.25-1.866c.017-.427.026-.647.026-.647s0,.221-.007.648a13.933,13.933,0,0,1-.2,1.88,14.448,14.448,0,0,1-3.006,6.468,27.861,27.861,0,0,1-8.711,6.934,60.673,60.673,0,0,1-13.527,5.171,104.464,104.464,0,0,1-16.89,2.921,108.176,108.176,0,0,1-19.142.141,78.145,78.145,0,0,1-10.036-1.472,41.373,41.373,0,0,1-9.9-3.355,18.436,18.436,0,0,1-4.432-3.075c-.167-.157-.322-.328-.483-.493s-.327-.362-.456-.528c-.295-.358-.544-.717-.814-1.079-.518-.732-1.005-1.492-1.452-2.278a17.61,17.61,0,0,1-1.949-5.1,10.929,10.929,0,0,1,.265-5.56,8.763,8.763,0,0,1,3.388-4.478,9.642,9.642,0,0,1,5.336-1.623,11.772,11.772,0,0,1,5.356,1.28,15.45,15.45,0,0,1,4.325,3.269,19.7,19.7,0,0,1,1.691,2.081c.26.359.5.739.744,1.118l.332.558.17.289.158.287a40.3,40.3,0,0,1,4.746,14.589,34.139,34.139,0,0,1-2.873,18.9,27.836,27.836,0,0,1-5.093,7.347,27.145,27.145,0,0,1-6.658,5.032,19.708,19.708,0,0,1-7.28,2.427,16.1,16.1,0,0,1-6.876-.741,20.145,20.145,0,0,1-5.376-2.807,27.994,27.994,0,0,1-3.859-3.386,36.354,36.354,0,0,1-4.4-5.665C133.044,868.795,132.655,868,132.655,868Z" transform="translate(-132.655 -825.618)" fill="#fff"/>
              </g>
            </g>
          </g>
        </g>
      </g>
    </g>
  </g>
</svg>
